<?xml version="1.0" standalone="no"?>
<!DOCTYPE svg PUBLIC "-//W3C//DTD SVG 1.1//EN" "http://www.w3.org/Graphics/SVG/1.1/DTD/svg11.dtd" >
<svg xmlns="http://www.w3.org/2000/svg">
<metadata>Generated by IcoMoon</metadata>
<defs>
<font id="icomoon" horiz-adv-x="1024">
<font-face units-per-em="1024" ascent="960" descent="-64" />
<missing-glyph horiz-adv-x="1024" />
<glyph unicode="&#x20;" horiz-adv-x="512" d="" />
<glyph unicode="&#xe900;" glyph-name="apple" d="M680.691 684.544c17.506-1.219 51.524-8.579 87.834-25.187 36.659-16.767 78.174-44.102 107.418-86.951 4.442-6.509 5.922-14.594 4.070-22.255-1.847-7.66-6.848-14.181-13.769-17.949-2.219-1.207-5.333-2.475-9.216-4.058-11.473-4.668-29.658-12.070-51.268-28.71-26.795-20.634-49.818-50.18-49.459-92.493 1.071-97.31 81.067-117.679 101.935-122.991 2.018-0.516 3.486-0.892 4.275-1.178 10.978-4.028 18.283-14.481 18.283-26.176 0-59.422-35.767-128.119-77.786-180.062-21.478-26.547-45.867-50.351-70.575-67.767-24.009-16.926-51.546-30.101-78.686-30.101-41.323 0-65.374 7.113-86.558 13.79-0.623 0.196-1.242 0.388-1.852 0.585-18.5 5.837-33.673 10.624-60.941 10.624-29.278 0-50.342-4.949-71.851-10.684-2.035-0.546-4.092-1.101-6.176-1.664-19.966-5.393-42.313-11.43-70.129-12.625-0.399-0.017-0.797-0.026-1.196-0.026-35.554 0-67.165 19.878-92.889 45.717-26.132 26.249-49.503 61.858-68.996 101.018-38.88 78.106-65.161 176.115-65.161 256.243 0 65.472 12.91 139.652 47.36 198.505 35.279 60.268 93.515 104.468 179.686 104.468 34.54 0 68.817-15.502 94.49-27.734 3.477-1.656 6.788-3.253 9.963-4.783 9.532-4.593 17.826-8.592 25.651-11.837 10.807-4.483 16.631-5.693 19.247-5.693 2.159 0 8.085 1.276 20.565 6.466 6.81 2.833 13.137 5.719 20.198 8.937 6.182 2.82 12.924 5.894 21.039 9.412 30.963 13.419 71.573 28.474 114.492 25.157zM546.377 589.551c-12.177-5.065-27.456-10.742-41.98-10.742-14.323 0-28.796 5.047-40.61 9.947-9.408 3.902-19.708 8.868-29.589 13.635-2.931 1.412-5.824 2.807-8.645 4.152-26.847 12.791-50.307 22.313-70.507 22.313-63.273 0-104.619-30.847-131.562-76.876-27.771-47.443-39.722-110.811-39.722-170.336 0-69.926 23.51-159.458 59.317-231.394 17.85-35.857 38.047-65.886 58.594-86.524 20.693-20.783 38.681-29.090 52.837-29.295 21.060 0.981 37.579 5.419 57.73 10.833 1.944 0.525 3.922 1.054 5.941 1.596 23.197 6.182 49.74 12.57 86.215 12.57 35.887 0 57.707-6.891 77.453-13.129 0.704-0.222 1.399-0.444 2.099-0.661 18.487-5.824 36.446-11.213 69.798-11.213 10.197 0 26.223 5.581 46.558 19.917 19.635 13.841 40.371 33.801 59.349 57.263 32.589 40.286 56.465 86.362 63.347 124.113-39.241 13.615-121.237 56.657-122.462 170.671v0.060c-0.567 66.185 36.565 110.494 71.198 137.164 11.955 9.207 24.917 17.060 36.297 23.186-18.812 18.255-41.015 31.927-62.699 41.846-31.155 14.248-58.709 19.602-68.574 20.273l-0.282 0.019v0.001c-28.356 2.217-58.146-7.733-88.107-20.718-5.679-2.461-12.096-5.371-18.513-8.279-8.38-3.798-16.759-7.595-23.484-10.392zM535.138 881.946c22.656 22.658 53.389 35.387 85.431 35.387 7.394 0 14.485-2.938 19.712-8.166 5.231-5.228 8.166-12.32 8.166-19.715 0-32.043-12.727-62.773-35.383-85.431-22.66-22.658-53.389-35.387-85.431-35.387-7.398 0-14.49 2.938-19.716 8.166-5.231 5.229-8.166 12.32-8.166 19.715 0 32.043 12.727 62.774 35.388 85.431z" />
<glyph unicode="&#xe901;" glyph-name="apple-fill" d="M787.49 421.299c-0.418 76.911 34.368 134.959 104.781 177.71-39.394 56.372-98.91 87.387-177.498 93.465-74.394 5.868-155.703-43.38-185.463-43.38-31.433 0-103.522 41.284-160.104 41.284-116.936-1.886-241.206-93.255-241.206-279.135 0-54.908 10.059-111.629 30.177-170.167 26.824-76.907 123.642-265.515 224.651-262.37 52.808 1.259 90.111 37.513 158.847 37.513 66.641 0 101.218-37.513 160.107-37.513 101.845 1.468 189.444 172.89 215.010 250.010-136.636 64.333-129.301 188.604-129.301 192.585zM668.881 765.401c57.207 67.898 51.968 129.719 50.291 151.933-50.505-2.934-108.971-34.368-142.289-73.137-36.676-41.493-58.261-92.836-53.649-150.675 54.694-4.191 104.572 23.89 145.647 71.88z" />
<glyph unicode="&#xe902;" glyph-name="arrow-bottom" d="M1012.945 692.945c14.741-14.74 14.741-38.638 0-53.377l-452.924-452.922c-14.737-14.741-38.639-14.741-53.376 0l-452.924 452.922c-14.74 14.74-14.74 38.638 0 53.377s38.638 14.74 53.377 0l426.234-426.236 426.236 426.236c14.737 14.74 38.635 14.74 53.376 0z" />
<glyph unicode="&#xe903;" glyph-name="arrow-bottom-2" d="M862.050 303.027h-293.619v654.771l-147.545 2.202v-656.973h-292.886l367.023-367.027 367.027 367.027z" />
<glyph unicode="&#xe904;" glyph-name="arrow-forward-up" d="M674.005 780.076c12.343 12.343 32.354 12.343 44.698 0l210.701-210.7c12.343-12.343 12.343-32.354 0-44.696l-210.701-210.701c-12.343-12.339-32.354-12.339-44.698 0-12.339 12.343-12.339 32.354 0 44.698l188.352 188.352-188.352 188.352c-12.339 12.342-12.339 32.353 0 44.696zM156.303 507.665c45.441 45.44 107.072 70.968 171.335 70.968h579.426c17.455 0 31.603-14.15 31.603-31.605s-14.148-31.607-31.603-31.607h-579.426c-47.499 0-93.052-18.867-126.639-52.454s-52.456-79.138-52.456-126.639c0-47.497 18.869-93.052 52.456-126.639s79.14-52.454 126.639-52.454h52.675c17.455 0 31.605-14.153 31.605-31.607s-14.15-31.603-31.605-31.603h-52.675c-64.263 0-125.894 25.527-171.335 70.967-45.441 45.444-70.969 107.072-70.969 171.337s25.528 125.897 70.969 171.337z" />
<glyph unicode="&#xe905;" glyph-name="arrow-left" d="M756.945-52.945c-14.741-14.741-38.639-14.741-53.376 0l-452.925 452.924c-14.74 14.737-14.74 38.639 0 53.376l452.925 452.924c14.737 14.74 38.635 14.74 53.376 0s14.741-38.638 0-53.377l-426.234-426.234 426.234-426.236c14.741-14.737 14.741-38.635 0-53.376z" />
<glyph unicode="&#xe906;" glyph-name="arrow-left-2" d="M367.025 97.95v293.619h654.773l2.202 147.545h-656.975v292.886l-367.025-367.023 367.025-367.027z" />
<glyph unicode="&#xe907;" glyph-name="arrow-right" d="M267.055 906.278c14.74 14.74 38.638 14.74 53.377 0l452.922-452.924c14.741-14.737 14.741-38.639 0-53.376l-452.922-452.924c-14.74-14.741-38.638-14.741-53.377 0s-14.74 38.639 0 53.376l426.236 426.236-426.236 426.234c-14.74 14.74-14.74 38.638 0 53.377z" />
<glyph unicode="&#xe908;" glyph-name="arrow-right-2" d="M656.973 97.95v293.619h-654.771l-2.202 147.545h656.973v292.886l367.027-367.023-367.027-367.027z" />
<glyph unicode="&#xe909;" glyph-name="arrow-top" d="M53.722 203.055c-14.74 14.741-14.74 38.639 0 53.376l452.924 452.925c14.737 14.74 38.639 14.74 53.376 0l452.924-452.925c14.741-14.737 14.741-38.635 0-53.376s-38.639-14.741-53.376 0l-426.236 426.234-426.234-426.234c-14.74-14.741-38.638-14.741-53.377 0z" />
<glyph unicode="&#xe90a;" glyph-name="arrow-top-2" d="M119.283 592.975h293.62v-654.773l147.545-2.202v656.975h292.885l-367.023 367.025-367.027-367.025z" />
<glyph unicode="&#xe90b;" glyph-name="brand-beats" d="M332.394 881.607c56.942 23.587 117.974 35.726 179.606 35.726s122.662-12.14 179.605-35.726c56.943-23.586 108.681-58.157 152.265-101.738 43.58-43.582 78.153-95.321 101.739-152.263s35.725-117.974 35.725-179.606c0-61.632-12.139-122.662-35.725-179.605s-58.159-108.681-101.739-152.265c-43.584-43.58-95.322-78.153-152.265-101.739s-117.973-35.725-179.605-35.725c-61.632 0-122.664 12.139-179.606 35.725s-108.681 58.159-152.263 101.739c-43.581 43.584-78.152 95.322-101.739 152.265s-35.726 117.973-35.726 179.605c0 61.632 12.14 122.664 35.726 179.606s58.157 108.681 101.739 152.263c43.582 43.581 95.321 78.152 152.263 101.738zM512 858.667c-53.931 0-107.331-10.622-157.155-31.26s-95.096-50.887-133.23-89.021c-38.134-38.134-68.384-83.405-89.021-133.23s-31.26-103.225-31.26-157.155c0-53.931 10.622-107.332 31.26-157.154 20.638-49.826 50.887-95.095 89.021-133.231s83.405-68.382 133.23-89.020c49.824-20.638 103.225-31.262 157.155-31.262s107.332 10.624 157.154 31.262c49.826 20.638 95.095 50.884 133.231 89.020s68.382 83.405 89.020 133.231c20.638 49.822 31.262 103.223 31.262 157.154s-10.624 107.331-31.262 157.155c-20.638 49.824-50.884 95.096-89.020 133.23s-83.405 68.384-133.231 89.021c-49.822 20.638-103.223 31.26-157.154 31.26zM394.709 565.291c37.59 37.591 88.576 58.709 141.735 58.709 53.163 0 104.145-21.118 141.734-58.709 37.594-37.59 58.709-88.576 58.709-141.735 0-53.163-21.116-104.145-58.709-141.734-37.589-37.594-88.572-58.709-141.734-58.709-53.158 0-104.145 21.116-141.735 58.709-37.591 37.589-58.709 88.572-58.709 141.734 0 53.158 21.118 104.145 58.709 141.735zM536.444 565.333c-37.602 0-73.664-14.937-100.25-41.527-26.59-26.586-41.527-62.647-41.527-100.25s14.937-73.664 41.527-100.254c26.586-26.586 62.647-41.523 100.25-41.523s73.664 14.938 100.254 41.523c26.586 26.59 41.523 62.652 41.523 100.254s-14.938 73.664-41.523 100.25c-26.59 26.59-62.652 41.527-100.254 41.527zM365.333 868.445c16.201 0 29.333-13.133 29.333-29.333v-391.111c0-16.201-13.133-29.333-29.333-29.333s-29.333 13.133-29.333 29.333v391.111c0 16.2 13.133 29.333 29.333 29.333z" />
<glyph unicode="&#xe90c;" glyph-name="brand-behance" d="M9.852 785.026c-3.59-3.261-6.223-7.437-7.617-12.082-3.309-11.872-2.784-640.041 0.525-649.496 1.814-4.497 4.721-8.469 8.458-11.558 5.883-4.361 7.249-4.412 139.733-4.412 121.768 0 135.268 0.367 150.029 3.785 30.286 6.562 58.464 20.553 82.001 40.708 27.947 24.166 46.070 52.531 57.573 90.249 4.941 16.337 5.675 22.327 5.833 48.068 0.158 32.043-1.89 42.761-13.606 72.021-11.819 29.572-36.771 60.83-62.459 78.217-11.82 8.038-12.87 9.613-7.302 11.401 6.724 2.206 33.935 27.264 45.597 42.027 21.907 27.733 36.247 66.030 38.402 102.487 4.514 77.851-41.974 150.712-115.255 180.55-29.785 12.082-33.305 12.345-181.128 12.345-133.167 0-135.426-0.052-140.784-4.308zM691.499 783.503c-11.034-11.032-9.719-32.097 2.624-41.237 5.726-4.255 8.512-4.413 87.202-5.095 44.706-0.368 85.312-0.052 90.249 0.683 5.171 0.81 10.069 2.846 14.289 5.936 10.56 9.088 10.453 31.676-0.158 40.817l-5.461 4.728h-182.916l-5.828-5.831zM296.095 733.598c22.116-5.253 41.184-16.547 60.096-35.564 27.999-28.157 37.665-51.638 37.665-91.509 0-27.054-3.205-41.027-14.184-61.987-9.403-18.018-38.453-46.49-56.103-55.104-28.209-13.764-27.316-13.658-153.864-14.763l-115.043-0.998v263.13l113.993-0.052c94.188 0 116.357-0.578 127.441-3.152zM759.787 604.371c-84.416-13.343-151.13-72.441-173.406-153.551-6.195-22.639-8.405-50.586-8.405-108.002-0.051-55.684 2.47-74.91 13.555-103.014 17.967-45.491 57.259-88.986 99.81-110.315 103.539-51.955 229.141-12.241 281.566 89.041 4.625 8.981 8.405 18.645 8.405 21.538 0 8.875-5.726 17.020-15.339 21.641-18.441 8.93-27.106 4.727-39.663-19.174-6.775-12.975-13.867-22.221-27.998-36.561-16.128-16.286-21.854-20.591-38.874-28.89-29.312-14.345-49.903-18.965-78.741-17.549-58.415 2.837-106.325 33.57-133.274 85.419-13.026 25.054-14.921 35.665-14.921 82.944v41.186h170.726c107.324 0 173.513 0.789 178.291 2.099 15.339 4.258 19.123 14.554 16.393 44.233-3.516 37.018-16.734 72.452-38.315 102.729-21.581 30.281-50.765 54.333-84.608 69.732-31.991 14.499-82.159 21.695-115.204 16.495zM829.551 549.003c27.601-8.4 52.749-23.38 73.28-43.655 19.541-20.433 36.403-51.849 39.659-73.754l1.472-9.98h-309.828l1.472 9.98c3.149 21.38 20.015 53.056 38.609 72.704 19.699 20.749 53.581 40.397 78.063 45.282l15.757 3.257c7.987 1.839 50.483-0.788 61.517-3.834zM296.095 418.411c22.116-5.252 41.184-16.546 60.096-35.563 27.999-28.16 37.665-51.639 37.665-91.511 0-27.055-3.205-41.028-14.184-61.986-9.403-18.018-38.453-46.49-56.103-55.104-28.892-14.080-27.054-13.871-153.864-14.763l-115.043-0.789v262.921l113.993-0.051c94.188 0 116.357-0.58 127.441-3.153z" />
<glyph unicode="&#xe90d;" glyph-name="brand-bing" d="M135.634 911.632c-3.779-3.91-6.177-8.948-6.827-14.347-0.692-4.849-0.989-187.454-0.692-405.88 0.593-395.439 0.593-397.167 4.601-402.709 5.69-7.915 208.579-110.029 218.622-110.029 10.192 0 509.77 250.483 515.462 258.449 3.908 5.44 4.006 8.755 4.599 115.767 0.346 60.604 0.051 114.876-0.64 120.614-0.397 5.555-2.313 10.897-5.542 15.437-3.413 4.006-40.666 18.005-181.321 68.222-124.574 44.526-179.388 63.227-185.229 63.227-10.534 0-20.924-6.778-23.351-15.238-2.522-8.905 48.435-213.922 55.164-221.888 2.475-2.918 16.128-11.034 30.426-18.108 14.251-7.023 25.924-13.257 25.924-13.85-0.047-0.99-201.553-85.44-207.094-86.78-2.226-0.542-2.671 44.181-2.721 276.062 0 157.869-0.791 280.018-1.83 284.422-0.965 4.202-2.877 8.128-5.591 11.478-2.028 2.078-49.869 21.125-106.269 42.25-113.887 42.745-117.004 43.537-127.69 32.9zM325.612 509.265c0.94-280.414 1.138-293.82 4.601-298.914 4.304-6.285 15.089-10.342 23.796-8.956 7.124 1.186 299.857 122.594 309.257 128.333 11.477 6.925 13.555 22.66 4.501 34.138-2.423 3.166-21.918 14.148-49.869 28.151-15.595 7.757-31.13 15.642-46.605 23.646-1.037 0.939-35.767 140.256-35.123 140.9 0.444 0.445 117.052-40.915 278.729-98.848l5.444-1.98v-190.571l-469.006-234.5-172.166 86.080v740.615l145.451-54.519 0.989-293.575z" />
<glyph unicode="&#xe90e;" glyph-name="brand-dribbble" d="M332.394 881.607c56.942 23.587 117.974 35.726 179.606 35.726s122.662-12.14 179.605-35.726c56.943-23.586 108.681-58.157 152.265-101.738 43.58-43.582 78.153-95.321 101.739-152.263s35.725-117.974 35.725-179.606c0-61.632-12.139-122.662-35.725-179.605s-58.159-108.681-101.739-152.265c-43.584-43.58-95.322-78.153-152.265-101.739s-117.973-35.725-179.605-35.725c-61.632 0-122.664 12.139-179.606 35.725s-108.681 58.159-152.263 101.739c-43.581 43.584-78.152 95.322-101.739 152.265s-35.726 117.973-35.726 179.605c0 61.632 12.14 122.664 35.726 179.606s58.157 108.681 101.739 152.263c43.582 43.581 95.321 78.152 152.263 101.738zM512 858.667c-53.931 0-107.331-10.622-157.155-31.26s-95.096-50.887-133.23-89.021c-38.134-38.134-68.384-83.405-89.021-133.23s-31.26-103.225-31.26-157.155c0-53.931 10.622-107.332 31.26-157.154 20.638-49.826 50.887-95.095 89.021-133.231s83.405-68.382 133.23-89.020c49.824-20.638 103.225-31.262 157.155-31.262s107.332 10.624 157.154 31.262c49.826 20.638 95.095 50.884 133.231 89.020s68.382 83.405 89.020 133.231c20.638 49.822 31.262 103.223 31.262 157.154s-10.624 107.331-31.262 157.155c-20.638 49.824-50.884 95.096-89.020 133.23s-83.405 68.384-133.231 89.021c-49.822 20.638-103.223 31.26-157.154 31.26zM346.555 881.201c12.445 10.371 30.942 8.69 41.313-3.756 247.182-296.621 348.255-522.092 373.352-808.215 1.417-16.141-10.517-30.37-26.658-31.787-16.137-1.412-30.366 10.522-31.782 26.658-23.791 271.211-118.276 485.74-359.98 775.785-10.371 12.445-8.69 30.942 3.756 41.313zM285.53 111.74c-8.714-8.777-17.556-17.681-26.58-26.705-11.455-11.456-30.028-11.456-41.484 0s-11.455 30.029 0 41.485c8.954 8.951 17.82 17.894 26.647 26.795 74.32 74.931 145.82 147.021 242.679 200.58 109.436 60.51 249.216 96.593 460.651 94.106 16.196-0.192 29.175-13.478 28.983-29.679-0.188-16.201-13.474-29.175-29.675-28.988-204.122 2.402-333.231-32.405-431.573-86.78-89.075-49.254-154.572-115.213-229.648-190.814zM848.021 772.422c10.419-12.404 8.811-30.908-3.597-41.327-276.638-232.377-520.311-251.317-767.549-251.317-16.201 0-29.333 13.133-29.333 29.333s13.133 29.333 29.333 29.333c241.651 0 468.678 18.216 729.819 237.572 12.403 10.42 30.908 8.811 41.327-3.594z" />
<glyph unicode="&#xe90f;" glyph-name="brand-facebook" d="M784.085 910.355c-45.090 4.783-90.402 7.111-135.744 6.973-150.31 0-243.727-95.739-243.727-249.85v-104.634h-126.266c-5.927 0-11.611-2.354-15.802-6.545s-6.545-9.875-6.545-15.802v-172.081c0-5.926 2.354-11.61 6.545-15.799 4.191-4.194 9.876-6.545 15.802-6.545h126.266v-345.054c0-5.926 2.354-11.614 6.545-15.804s9.875-6.545 15.801-6.545h177.801c5.926 0 11.614 2.355 15.804 6.545s6.545 9.877 6.545 15.804v345.054h125.867c5.423-0.004 10.667 1.967 14.746 5.547 4.079 3.575 6.716 8.516 7.42 13.897l22.217 172.078c0.414 3.154 0.149 6.36-0.777 9.404s-2.487 5.855-4.587 8.245c-2.099 2.391-4.685 4.305-7.582 5.617-2.901 1.312-6.046 1.989-9.225 1.987h-148.079v87.56c0 43.355 8.717 61.457 62.933 61.457h91.136c5.926 0 11.61 2.354 15.799 6.545 4.194 4.191 6.545 9.875 6.545 15.802v153.978c0.004 5.426-1.967 10.667-5.542 14.746-3.58 4.079-8.521 6.717-13.897 7.423zM758.831 756.601l-68.834-0.045c-96.41 0-107.58-60.608-107.58-106.153v-109.952c-0.004-5.92 2.347-11.598 6.528-15.788s9.856-6.549 15.774-6.562h145.084l-16.495-127.381h-128.546c-5.926 0-11.61-2.355-15.799-6.545-4.194-4.194-6.545-9.877-6.545-15.804v-344.964h-133.107v344.964c0 5.926-2.355 11.61-6.545 15.804-4.19 4.19-9.877 6.545-15.804 6.545h-126.22v127.381h126.22c5.926 0 11.614 2.355 15.804 6.545 4.19 4.194 6.545 9.877 6.545 15.805v127.026c0 128.456 74.419 205.155 199.031 205.155 45.099 0 85.815-2.458 110.49-4.604v-111.427z" />
<glyph unicode="&#xe910;" glyph-name="brand-flickr" d="M204.503 660.716c-82.301-15.819-144.966-77.102-159.347-155.918-3.318-18.142-3.318-52.211 0-70.353 14.049-76.937 78.208-141.094 155.144-155.145 18.141-3.319 52.212-3.319 70.353 0 49.668 9.071 96.902 40.486 126.272 83.959 11.726 17.37 23.451 45.521 27.987 67.089 4.038 19.251 4.482 54.925 0.885 74.449-12.998 70.74-67.423 130.42-137.61 150.829-12.279 3.595-23.728 4.867-47.179 5.42-12.166 0.471-24.349 0.361-36.504-0.332zM757.598 660.716c-42.59-8.186-81.028-28.595-108.74-57.743-34.569-35.731-53.683-83.638-53.205-133.353 0-11.558 1.161-27.375 2.598-35.174 14.050-76.937 78.208-141.094 155.145-155.145 18.142-3.319 52.211-3.319 70.353 0 49.668 9.071 96.905 40.486 126.272 83.959 11.725 17.37 23.45 45.521 27.985 67.089 4.041 19.251 4.48 54.925 0.887 74.449-13.001 70.74-67.422 130.42-137.613 150.829-12.275 3.595-23.727 4.867-47.177 5.42-12.169 0.471-24.35 0.361-36.506-0.332zM280.664 600.538c19.605-7.334 37.414-18.778 52.23-33.565s26.295-32.573 33.666-52.166c4.204-11.337 4.867-17.476 4.867-45.188 0-27.708-0.664-33.847-4.867-45.188-12.721-34.014-39.325-63.991-69.69-78.426-22.953-10.897-36.726-14.106-61.393-14.106s-38.441 3.209-61.394 14.106c-30.476 14.49-57.466 44.966-69.469 78.426-5.974 16.538-8.076 54.592-4.148 74.505 9.458 48.229 51.881 92.588 100.221 104.811 18.141 4.591 63.551 2.765 79.978-3.208zM833.758 600.538c19.605-7.334 37.414-18.778 52.233-33.565 14.814-14.787 26.295-32.573 33.664-52.166 4.203-11.337 4.868-17.476 4.868-45.188 0-27.708-0.666-33.847-4.868-45.188-12.719-34.014-39.326-63.991-69.687-78.426-22.955-10.897-36.727-14.106-61.397-14.106-24.666 0-38.438 3.209-61.393 14.106-30.473 14.49-57.463 44.966-69.466 78.426-5.973 16.538-8.077 54.592-4.151 74.505 9.459 48.229 51.883 92.588 100.224 104.811 18.142 4.591 63.548 2.765 79.974-3.208z" />
<glyph unicode="&#xe911;" glyph-name="brand-google" d="M742.468 787.899c-68.689 46.579-150.148 71.409-233.685 70.755-95.113-0.745-187.020-34.484-260.026-95.456s-122.582-145.396-140.265-238.854c-17.682-93.461-2.374-190.161 43.312-273.587 45.686-83.43 118.915-148.412 207.184-183.851 88.269-35.443 186.103-39.142 276.796-10.47 90.697 28.668 168.623 87.932 220.484 167.671 47.087 72.41 70.029 157.623 65.933 243.46h-332.015v-88h172.331c9.69 0 18.756-4.783 24.222-12.783s6.63-18.18 3.11-27.209c-22.387-57.391-61.995-106.445-113.387-140.416-51.388-33.971-112.038-51.191-173.611-49.301-61.577 1.894-121.053 22.805-170.26 59.87-49.207 37.060-85.73 88.452-104.548 147.11s-19.010 121.707-0.548 180.478c18.462 58.772 54.672 110.384 103.653 147.744s108.331 58.635 169.894 60.901c53.939 1.985 107.255-10.708 154.338-36.523l87.087 78.461zM508.326 917.319c108.702 0.851 214.327-36.058 298.846-104.425 6.673-5.398 10.645-13.447 10.876-22.026 0.226-8.579-3.315-16.828-9.69-22.573l-129.801-116.942c-9.882-8.904-24.521-10.043-35.661-2.775-41.446 27.037-90.249 40.576-139.699 38.756s-97.124-18.91-136.47-48.92c-39.346-30.011-68.432-71.47-83.262-118.678-14.831-47.211-14.677-97.856 0.44-144.973 15.117-47.121 44.454-88.401 83.982-118.174s87.302-46.571 136.765-48.090c49.459-1.523 98.18 12.314 139.46 39.603 28.745 18.999 52.902 43.878 70.993 72.798h-154.253c-16.201 0-29.333 13.133-29.333 29.333v146.667c0 16.201 13.133 29.333 29.333 29.333h388.42c14.942 0 27.494-11.226 29.154-26.074 12.079-108.032-13.713-216.909-72.981-308.036-59.264-91.132-148.326-158.861-251.977-191.629s-215.462-28.535-316.34 11.968c-100.879 40.503-184.57 114.769-236.782 210.112-52.212 95.347-69.708 205.862-49.5 312.673s76.867 203.296 160.302 272.978c83.435 69.682 188.472 108.241 297.176 109.093z" />
<glyph unicode="&#xe912;" glyph-name="brand-google-drive" d="M351.992 874.667c11.241 0 21.656-5.897 27.439-15.536l159.995-266.661c6.080-10.134 6.080-22.793 0-32.927l-319.991-533.32c-5.783-9.638-16.199-15.535-27.439-15.535s-21.656 5.897-27.439 15.535l-159.996 266.658c-6.080 10.133-6.080 22.797 0 32.93l319.993 533.32c5.783 9.638 16.199 15.536 27.439 15.536zM69.317 309.346l122.679-204.467 282.675 471.128-122.679 204.465-282.675-471.126zM319.997 309.346c0 17.673 14.327 32 31.999 32h639.987c11.529 0 22.165-6.204 27.844-16.235s5.525-22.345-0.405-32.23l-159.996-266.658c-5.786-9.638-16.201-15.535-27.443-15.535h-639.984c-17.673 0-31.999 14.323-31.999 31.996s14.327 32 31.999 32h621.868l121.6 202.662h-583.471c-17.673 0-31.999 14.327-31.999 32zM324.154 858.433c5.68 10.032 16.317 16.233 27.846 16.233h319.992c11.243 0 21.658-5.897 27.439-15.536l319.996-533.32c5.931-9.886 6.084-22.199 0.405-32.23s-16.32-16.235-27.849-16.235h-319.991c-11.238 0-21.658 5.897-27.439 15.535l-319.992 533.323c-5.932 9.886-6.087 22.198-0.407 32.23zM408.516 810.668l281.591-469.322h245.359l-281.591 469.322h-245.359z" />
<glyph unicode="&#xe913;" glyph-name="brand-instagram" d="M512 659.66c-41.865 0-82.786-12.413-117.592-35.671-34.807-23.258-61.937-56.314-77.957-94.991s-20.212-81.233-12.044-122.291 28.326-78.771 57.927-108.373c29.601-29.602 67.315-49.762 108.373-57.929s83.614-3.972 122.291 12.045c38.677 16.021 71.731 43.149 94.989 77.956s35.674 75.729 35.674 117.594c-0.073 56.115-22.396 109.908-62.076 149.585-39.676 39.678-93.47 62.001-149.585 62.074zM512 291.554c-30.942 0-61.188 9.178-86.916 26.368s-45.779 41.621-57.62 70.208c-11.841 28.587-14.939 60.045-8.902 90.389 6.036 30.349 20.936 58.224 42.816 80.103s49.754 36.779 80.103 42.816c30.345 6.036 61.803 2.938 90.389-8.902s53.018-31.893 70.208-57.62c17.19-25.728 26.368-55.974 26.368-86.916 0-41.493-16.482-81.284-45.824-110.622-29.338-29.342-69.129-45.824-110.622-45.824zM732.864 917.333h-441.727c-65.876-0.073-129.033-26.275-175.615-72.856s-72.783-109.739-72.856-175.615v-441.727c0.073-65.873 26.275-129.033 72.856-175.612 46.582-46.583 109.739-72.785 175.615-72.858h441.727c65.873 0.073 129.033 26.274 175.612 72.858 46.583 46.579 72.785 109.739 72.858 175.612v441.727c-0.073 65.876-26.274 129.033-72.858 175.615-46.579 46.581-109.739 72.783-175.612 72.856zM926.118 227.136c0-51.251-20.361-100.407-56.606-136.649-36.241-36.245-85.397-56.606-136.649-56.606h-441.727c-51.255 0-100.41 20.361-136.652 56.606-36.242 36.241-56.603 85.397-56.603 136.649v441.727c0 51.255 20.361 100.41 56.603 136.652s85.397 56.603 136.652 56.603h441.727c51.251 0 100.407-20.361 136.649-56.603 36.245-36.242 56.606-85.397 56.606-136.652v-441.727zM797.282 687.268c0-9.1-2.701-17.996-7.757-25.563s-12.241-13.464-20.651-16.947c-8.405-3.482-17.66-4.394-26.581-2.618-8.926 1.775-17.126 6.158-23.561 12.593s-10.82 14.634-12.595 23.559c-1.775 8.926-0.862 18.177 2.62 26.585s9.382 15.594 16.947 20.65c7.565 5.056 16.465 7.754 25.562 7.754 12.207 0 23.91-4.848 32.538-13.477 8.631-8.629 13.478-20.333 13.478-32.536z" />
<glyph unicode="&#xe914;" glyph-name="brand-messenger" d="M531.187 815.661c-100.267 4.065-198.406-24.416-276.158-79.576-77.69-55.116-129.415-132.823-146.689-218.162-17.256-85.252 0.796-173.414 51.43-248.303 5.104-7.548 6.407-17.041 3.526-25.685l-47.309-141.926 179.502 38.191c6.381 1.357 13.033 0.546 18.902-2.304 87.651-42.551 190.023-55.467 287.901-36.079 97.869 19.388 183.744 69.577 242.099 140.369 58.266 70.69 85.248 157.158 76.8 243.388-8.452 86.277-51.921 167.643-123.452 228.654-71.607 61.075-166.285 97.369-266.551 101.434zM221.108 783.898c88.809 63.005 199.836 94.905 312.456 90.339s220.058-45.329 302.217-115.407c82.24-70.143 133.722-165.103 143.753-267.54 10.039-102.485-22.221-204.275-89.903-286.391-67.601-82.010-165.811-138.769-275.947-160.589-106.739-21.146-218.416-8.252-315.671 36.489l-219.933-46.793c-10.283-2.189-20.95 1.297-27.955 9.135-7.006 7.842-9.277 18.829-5.952 28.804l59.042 177.126c-53.071 84.843-71.862 183.991-52.332 280.482 20.463 101.092 81.356 191.296 170.226 254.345zM731.447 518.613c8.977-13.47 5.338-31.671-8.132-40.649l-146.56-97.707c-11.622-7.753-27.106-6.217-36.983 3.661l-80.717 80.717-126.564-84.378c-13.47-8.981-31.668-5.342-40.649 8.128s-5.34 31.671 8.13 40.649l146.56 97.707c11.627 7.751 27.106 6.217 36.988-3.661l80.713-80.717 126.566 84.378c13.47 8.98 31.667 5.342 40.649-8.128z" />
<glyph unicode="&#xe915;" glyph-name="brand-paypal" d="M207.616 893.339c13.353 13.353 32.761 23.994 54.637 23.994h270.295c82.667 0 152.149-26.812 200.99-76.361 36.373-36.902 59.772-84.867 69.321-140.052 87.893-56.626 127.757-152.96 127.757-255.374 0-71.676-35.827-134.613-86.963-178.931-51.051-44.241-119.228-71.706-188.245-71.706h-102.797l-25.378-152.277c-0.060-0.35-0.124-0.7-0.196-1.045-3.674-18.027-13.555-34.197-27.921-45.692-14.285-11.422-32.098-17.51-50.377-17.22h-132.189c-7.986-0.107-15.898 1.553-23.167 4.873-7.378 3.362-13.905 8.346-19.096 14.575s-8.915 13.547-10.895 21.41c-1.894 7.526-2.145 15.364-0.741 22.989l4.218 29.53h-102.904c-21.876 0-41.284 10.641-54.637 23.991-13.353 13.355-23.994 32.764-23.994 54.639 0 1.395 0.099 2.79 0.297 4.169l98.034 686.245c0.74 20.896 11.088 39.38 23.952 52.244zM329.169 91.157l-7.644-53.508h128.070c4.599-0.094 9.084 1.425 12.676 4.297 3.486 2.79 5.914 6.677 6.895 11.021l29.38 176.277c2.368 14.221 14.673 24.64 29.086 24.64h127.774c53.845 0 108.527 21.683 149.623 57.297 41.011 35.546 66.611 83.183 66.611 134.366 0 70.054-21.487 132.235-64.811 176.526-5.867-63.759-39.036-124.263-84.501-169.733-50.21-50.21-118.763-85.423-189.781-85.423h-122.863c-7.479 0-10.378-2.155-12.179-4.092-2.628-2.829-5.955-8.862-7.88-20.412-0.113-0.683-0.251-1.361-0.413-2.035l-58.973-245.722c-0.288-1.199-0.646-2.368-1.071-3.499zM278.321 131.025l53.319 222.161c3.069 17.6 9.575 35.686 22.651 49.766 14.171 15.262 33.387 22.938 55.394 22.938h122.863c51.84 0 106.146 26.219 148.083 68.151 41.933 41.935 68.151 96.243 68.151 148.084 0 67.435-21.244 120.927-57.246 157.449-35.934 36.454-89.31 58.787-158.989 58.787h-270.295c-2.696 0-7.86-1.645-12.937-6.721s-6.721-10.24-6.721-12.937c0-1.395-0.099-2.789-0.296-4.17l-97.882-685.178c0.442-2.871 2.274-7.27 6.611-11.61 5.076-5.077 10.24-6.72 12.937-6.72h114.357z" />
<glyph unicode="&#xe916;" glyph-name="brand-reddit" d="M469.393 593.067c-107.924 0-203.648-33.753-268.794-85.717-6.888-5.495-16.118-7.061-24.433-4.147-18.27 6.404-38.229 6.059-56.266-0.977-18.038-7.031-32.963-20.288-42.075-37.367-9.113-17.084-11.811-36.86-7.608-55.761 3.815-17.152 13.087-32.55 26.351-43.93l36.656-7.548c11.482-2.368 19.89-12.228 20.41-23.94 2.866-64.597 41.098-125.124 105.602-170.351 64.435-45.18 153.528-73.728 252.823-73.728 101.244 0 191.863 29.679 256.533 76.382 64.704 46.729 101.867 109.052 101.867 175.351 0 8.064 3.797 15.654 10.249 20.489 15.497 11.61 26.321 28.378 30.528 47.275 4.203 18.901 1.502 38.677-7.612 55.761-9.109 17.079-24.034 30.336-42.074 37.367-18.035 7.036-37.995 7.381-56.265 0.977-8.316-2.914-17.549-1.348-24.435 4.147-65.182 52.003-160.905 85.717-268.834 85.717h-42.624zM179.29 555.532c74.617 55.233 177.506 88.734 290.103 88.734h42.624c112.593 0 215.488-33.461 290.146-88.734 25.856 6.010 53.047 4.121 77.99-5.604 29.427-11.475 53.777-33.103 68.646-60.973s19.273-60.139 12.412-90.974c-5.918-26.624-19.9-50.658-39.876-68.915-4.356-81.788-52.002-153.489-122.769-204.595-74.317-53.67-175.697-86.071-286.507-86.071-108.705 0-208.305 31.185-282.217 83.008-67.924 47.625-115.478 113.843-125.581 189.901l-24.034 4.949c-3.691 0.764-7.168 2.33-10.185 4.587-25.28 18.94-42.946 46.302-49.804 77.137s-2.455 63.104 12.413 90.974c14.868 27.87 39.219 49.498 68.649 60.973 24.94 9.725 52.131 11.613 77.99 5.604zM529.545 837.021c2.709 13.549 15.68 22.503 29.312 20.231l256-42.667c13.943-2.324 23.364-15.514 21.043-29.46-2.325-13.946-15.514-23.367-29.461-21.043l-231.552 38.592-37.803-189.027c-2.773-13.864-16.26-22.855-30.123-20.082-13.867 2.773-22.857 16.259-20.083 30.124l42.667 213.333zM762.411 837.605c12.804 12.803 30.165 19.995 48.273 19.995 18.103 0 35.469-7.192 48.273-19.995 12.8-12.803 19.994-30.166 19.994-48.272s-7.194-35.469-19.994-48.272c-12.804-12.803-30.17-19.995-48.273-19.995-18.108 0-35.469 7.192-48.273 19.995-12.8 12.803-19.994 30.166-19.994 48.272s7.194 35.469 19.994 48.272zM810.684 806.4c-4.527 0-8.866-1.798-12.070-4.999-3.2-3.2-4.996-7.541-4.996-12.068s1.796-8.867 4.996-12.068c3.204-3.201 7.543-4.999 12.070-4.999s8.866 1.798 12.066 4.999c3.2 3.2 5.001 7.541 5.001 12.068s-1.801 8.867-5.001 12.068c-3.2 3.201-7.539 4.999-12.066 4.999zM384 384c11.782 0 21.333 9.553 21.333 21.333s-9.551 21.333-21.333 21.333c-11.782 0-21.333-9.553-21.333-21.333s9.551-21.333 21.333-21.333zM384.017 401.067c2.356 0 4.267 1.911 4.267 4.267s-1.91 4.267-4.267 4.267c-2.356 0-4.267-1.911-4.267-4.267s1.91-4.267 4.267-4.267zM337.083 405.333c0 25.92 21.013 46.933 46.933 46.933s46.934-21.013 46.934-46.933c0-25.92-21.013-46.933-46.934-46.933s-46.933 21.013-46.933 46.933zM640 384c11.78 0 21.333 9.553 21.333 21.333s-9.553 21.333-21.333 21.333c-11.78 0-21.333-9.553-21.333-21.333s9.553-21.333 21.333-21.333zM640.017 401.067c2.355 0 4.267 1.911 4.267 4.267s-1.911 4.267-4.267 4.267c-2.355 0-4.267-1.911-4.267-4.267s1.911-4.267 4.267-4.267zM593.084 405.333c0 25.92 21.013 46.933 46.933 46.933s46.933-21.013 46.933-46.933c0-25.92-21.013-46.933-46.933-46.933s-46.933 21.013-46.933 46.933zM403.743 246.101c6.315 12.651 21.69 17.783 34.341 11.469 25.344-12.655 49.873-18.637 73.894-18.637 24.026 0 48.555 5.982 73.899 18.637 12.651 6.315 28.023 1.182 34.342-11.469 6.315-12.651 1.178-28.023-11.469-34.338-31.573-15.761-63.876-24.030-96.772-24.030-32.892 0-65.195 8.269-96.766 24.030-12.65 6.315-17.785 21.687-11.469 34.338z" />
<glyph unicode="&#xe917;" glyph-name="brand-skype" d="M370.429 841.787c6.505-2.938 13.857-3.402 20.68-1.307 39.164 12.027 79.906 18.116 120.875 18.063h0.047c64.269 0.014 127.642-15.060 185.020-44.009 57.382-28.949 107.162-70.964 145.34-122.664s63.689-111.64 74.47-174.998c10.786-63.356 6.545-128.363-12.378-189.781-2.103-6.827-1.643-14.187 1.297-20.702 15.932-35.29 20.736-74.594 13.781-112.683-6.959-38.089-25.353-73.156-52.732-100.535-27.375-27.379-62.443-45.773-100.535-52.727-38.089-6.959-77.393-2.15-112.683 13.781-6.515 2.94-13.879 3.401-20.71 1.293-71.356-22.012-147.366-24.145-219.845-6.17s-138.683 55.377-191.486 108.181c-52.803 52.8-90.205 119.006-108.18 191.484s-15.842 148.489 6.17 219.845c2.108 6.833 1.646 14.202-1.298 20.719-15.945 35.292-20.763 74.603-13.812 112.701s25.342 73.175 52.724 100.561c27.382 27.386 62.455 45.783 100.552 52.741s77.409 2.147 112.703-13.793zM384.287 899.609c-43.437 17.318-90.95 22.096-137.099 13.668-49.818-9.099-95.684-33.155-131.491-68.968s-59.856-81.683-68.946-131.503c-8.419-46.142-3.636-93.647 13.682-137.074-22.24-78.503-23.64-161.519-3.97-240.837 20.542-82.833 63.287-158.494 123.633-218.842 60.346-60.343 136.008-103.091 218.841-123.631 79.317-19.674 162.334-18.27 240.841 3.968 43.426-17.301 90.923-22.071 137.058-13.645 49.809 9.097 95.663 33.148 131.469 68.954 35.802 35.802 59.853 81.66 68.949 131.469 8.431 46.135 3.657 93.632-13.649 137.062 18.991 67.102 22.793 137.643 11.076 206.485-12.326 72.407-41.476 140.911-85.111 199.996-43.631 59.086-100.523 107.103-166.101 140.187-65.57 33.081-137.988 50.308-211.43 50.295 0.004 0 0.013 0 0.021 0h-0.043c0.004 0 0.013 0 0.021 0-43.209 0.054-86.199-5.869-127.752-17.585zM378.2 631.575c-23.214-16.799-32.375-38.355-32.375-61.403 0-22.499 14.238-44.97 45.344-63.338 30.912-18.253 74.431-29.525 120.835-29.525 54.899 0 109.133-13.124 150.652-37.619 41.34-24.388 74.18-63.023 74.18-113.899 0-41.126-17.6-80.666-56.64-108.919-37.965-27.473-93.76-42.598-168.192-42.598-42.573 0-90.529 6.396-132.050 27.661-42.637 21.837-77.454 58.94-91.905 116.745-3.928 15.71 5.625 31.633 21.338 35.563 15.712 3.925 31.635-5.628 35.563-21.338 9.987-39.949 32.797-63.945 61.739-78.767 30.060-15.39 67.636-21.214 105.315-21.214 67.554 0 109.517 13.884 133.807 31.462 23.215 16.802 32.375 38.357 32.375 61.406 0 22.579-14.251 45.047-45.333 63.386-30.908 18.236-74.428 29.478-120.849 29.478-54.912 0-109.148 13.163-150.659 37.675-41.317 24.401-74.172 63.027-74.172 113.843 0 41.127 17.6 80.666 56.642 108.919 37.965 27.473 93.757 42.598 168.189 42.598 42.577 0 90.534-6.398 132.053-27.662 42.637-21.835 77.453-58.939 91.904-116.742 3.93-15.713-5.623-31.635-21.338-35.563s-31.633 5.625-35.563 21.338c-9.988 39.949-32.798 63.942-61.739 78.764-30.059 15.393-67.635 21.214-105.318 21.214-67.554 0-109.513-13.884-133.804-31.462z" />
<glyph unicode="&#xe918;" glyph-name="brand-snapchat" d="M322.491 838.836c50.261 50.26 118.43 78.497 189.509 78.497s139.247-28.236 189.508-78.497c50.261-50.261 78.498-118.429 78.498-189.509 0-61.666 1.020-111.919 6.592-154.258 19.098 41.39 52.855 83.149 95.765 126.062 11.456 11.456 30.029 11.456 41.485 0s11.456-30.028 0-41.483c-73.233-73.23-99.951-125.399-95.471-166.222 4.335-39.531 39.974-83.302 135.94-134.357 9.711-4.493 16.171-13.905 16.934-24.503 0.397-5.325-0.653-10.82-3.337-15.889-3.486-6.583-9.122-11.294-15.586-13.726-49.809-21.978-67.844-30.498-81.259-43.913-13.85-13.85-23.782-33.911-49.216-87.774-4.847-10.261-15.177-16.811-26.526-16.811-65.749 0-109.286-21.504-150.443-45.022-4.198-2.398-8.444-4.877-12.749-7.386-36.723-21.414-77.798-45.367-130.138-45.367s-93.413 23.953-130.138 45.367c-4.305 2.509-8.55 4.988-12.747 7.386-41.158 23.518-84.695 45.022-150.444 45.022-11.349 0-21.68 6.549-26.525 16.811-25.432 53.862-35.366 73.924-49.216 87.774-13.413 13.414-31.451 21.935-81.257 43.913-6.466 2.432-12.104 7.142-15.591 13.726-2.68 5.060-3.73 10.551-3.335 15.872 0.757 10.607 7.217 20.023 16.934 24.521 95.966 51.055 131.607 94.827 135.942 134.357 4.477 40.823-22.239 92.992-95.471 166.222-11.455 11.455-11.455 30.028 0 41.483s30.028 11.456 41.483 0c42.908-42.907 76.66-84.662 95.761-126.049 5.576 42.339 6.598 92.588 6.598 154.245 0 71.080 28.236 139.248 78.497 189.509zM139.86 253.491c17.844-9.246 32.26-18.675 44.553-30.972 20.216-20.215 33.911-47.411 53.084-87.906 70.663-3.84 119.863-28.898 160.725-52.245 4.224-2.415 8.305-4.766 12.265-7.053 38.746-22.34 65.852-37.969 101.513-37.969s62.771 15.629 101.513 37.969c3.959 2.287 8.043 4.638 12.267 7.053 40.862 23.347 90.061 48.405 160.725 52.245 19.174 40.495 32.866 67.691 53.082 87.906 12.292 12.292 26.705 21.726 44.548 30.967-66.022 37.645-107.307 81.856-131.43 138.987-29.171 69.077-31.364 153.594-31.364 256.854 0 55.52-22.054 108.767-61.316 148.026-39.258 39.258-92.501 61.314-148.023 61.314s-108.767-22.056-148.026-61.314c-39.258-39.259-61.314-92.505-61.314-148.026 0-103.265-2.204-187.777-31.381-256.858-24.129-57.126-65.414-101.333-131.419-138.978z" />
<glyph unicode="&#xe919;" glyph-name="brand-spotify" d="M332.394 881.607c56.942 23.587 117.974 35.726 179.606 35.726s122.662-12.14 179.605-35.726c56.943-23.586 108.681-58.157 152.265-101.738 43.58-43.582 78.153-95.321 101.739-152.263s35.725-117.974 35.725-179.606c0-61.632-12.139-122.662-35.725-179.605s-58.159-108.681-101.739-152.265c-43.584-43.58-95.322-78.153-152.265-101.739s-117.973-35.725-179.605-35.725c-61.632 0-122.664 12.139-179.606 35.725s-108.681 58.159-152.263 101.739c-43.581 43.584-78.152 95.322-101.739 152.265s-35.726 117.973-35.726 179.605c0 61.632 12.14 122.664 35.726 179.606s58.157 108.681 101.739 152.263c43.582 43.581 95.321 78.152 152.263 101.738zM512 858.667c-53.931 0-107.331-10.622-157.155-31.26s-95.096-50.887-133.23-89.021c-38.134-38.134-68.384-83.405-89.021-133.23s-31.26-103.225-31.26-157.155c0-53.931 10.622-107.332 31.26-157.154 20.638-49.826 50.887-95.095 89.021-133.231s83.405-68.382 133.23-89.020c49.824-20.638 103.225-31.262 157.155-31.262s107.332 10.624 157.154 31.262c49.826 20.638 95.095 50.884 133.231 89.020s68.382 83.405 89.020 133.231c20.638 49.822 31.262 103.223 31.262 157.154s-10.624 107.331-31.262 157.155c-20.638 49.824-50.884 95.096-89.020 133.23s-83.405 68.384-133.231 89.021c-49.822 20.638-103.223 31.26-157.154 31.26zM665.489 400.090c-89.933 67.447-223.804 88.99-334.177 23.957-13.958-8.222-31.94-3.575-40.164 10.381-8.224 13.961-3.575 31.94 10.382 40.166 134.071 78.993 293.533 51.644 399.159-27.571 12.958-9.719 15.586-28.109 5.867-41.067-9.719-12.962-28.109-15.586-41.067-5.867zM494.775 305.677c-39.885 2.658-82.272-8.154-113.168-28.749-13.48-8.99-31.692-5.346-40.678 8.132-8.986 13.483-5.344 31.693 8.136 40.678 42.437 28.292 97.825 41.929 149.61 38.473 51.729-3.447 104.461-24.474 135.514-71.053 8.986-13.478 5.342-31.689-8.137-40.674-13.478-8.99-31.693-5.346-40.678 8.132-17.839 26.756-50.658 42.398-90.598 45.060zM740.89 545.347c-183.966 114.979-368.006 69.191-460.223 23.083-14.49-7.245-32.11-1.372-39.355 13.118s-1.372 32.11 13.118 39.355c103.338 51.669 310.409 103.66 517.555-25.807 13.734-8.586 17.911-26.683 9.327-40.421s-26.684-17.914-40.422-9.328z" />
<glyph unicode="&#xe91a;" glyph-name="brand-tiktok" d="M953.724 669.384c-60.992 0.070-119.467 23.417-162.598 64.919s-67.392 97.771-67.465 156.464c0 7.046-2.91 13.803-8.085 18.785-5.18 4.982-12.203 7.781-19.524 7.781h-184.051c-7.322 0-14.345-2.799-19.52-7.781-5.18-4.982-8.090-11.739-8.090-18.785v-584.455c-0.009-17.429-4.881-34.534-14.101-49.536-9.225-15.002-22.46-27.345-38.327-35.746-15.871-8.401-33.792-12.553-51.897-12.019s-35.728 5.73-51.034 15.053c-15.305 9.318-27.732 22.421-35.983 37.935-8.251 15.518-12.025 32.879-10.928 50.274 1.097 17.399 7.025 34.193 17.166 48.636s24.122 26.001 40.487 33.472c4.721 2.155 8.71 5.551 11.503 9.801 2.794 4.245 4.278 9.169 4.279 14.199v189.015c-0.004 3.861-0.883 7.675-2.575 11.176s-4.157 6.605-7.223 9.096c-3.066 2.491-6.659 4.309-10.53 5.327s-7.925 1.212-11.882 0.569c-160.125-27.407-280.68-168.075-280.68-327.251 0-86.895 35.874-170.236 99.729-231.68s150.462-95.966 240.768-95.966c90.304 0 176.913 34.522 240.768 95.966s99.729 144.785 99.729 231.68v190.703c70.195-38.11 149.466-58.048 230.063-57.869 7.326 0 14.345 2.799 19.524 7.778 5.175 4.983 8.085 11.742 8.085 18.786v177.107c0 7.046-2.91 13.803-8.085 18.785-5.18 4.982-12.198 7.781-19.524 7.781zM926.118 493.163c-77.133 4.74-151.305 30.357-213.961 73.897-4.13 2.854-9.003 4.556-14.071 4.916-5.073 0.361-10.146-0.634-14.669-2.873s-8.311-5.637-10.953-9.818c-2.645-4.181-4.036-8.983-4.019-13.876v-239.096c0-72.802-30.059-142.63-83.558-194.112s-126.063-80.401-201.724-80.401c-75.661 0-148.224 28.919-201.724 80.401s-83.557 121.31-83.557 194.112c0 122.735 84.986 232.366 202.458 267.345v-139.605c-23.104-13.871-42.044-33.31-54.947-56.388-12.903-23.074-19.322-48.994-18.622-75.191s8.493-51.763 22.611-74.176c14.118-22.409 34.070-40.883 57.883-53.594 23.814-12.715 50.664-19.226 77.895-18.893s53.901 7.505 77.368 20.796c23.471 13.295 42.923 32.256 56.444 55.006 13.517 22.746 20.634 48.499 20.638 74.701v557.889h130.167c6.477-63.304 35.563-122.488 82.308-167.467 46.741-44.979 108.245-72.969 174.033-79.199v-124.373z" />
<glyph unicode="&#xe91b;" glyph-name="brand-twitch" d="M109.452 893.164c15.475 15.475 36.465 24.169 58.351 24.169h722.050c21.888 0 42.876-8.694 58.351-24.169s24.171-36.465 24.171-58.351v-442.771c0-21.978-8.764-42.901-24.119-58.338l-0.060-0.064-124.493-124.437c-0.009-0.013-0.021-0.026-0.034-0.034-15.492-15.561-36.493-24.201-58.368-24.201h-275.179l-197.236-197.239c-8.85-8.849-22.16-11.494-33.724-6.707-11.563 4.791-19.103 16.073-19.103 28.591v175.356h-72.205c-21.885 0-42.875 8.691-58.351 24.171-15.475 15.475-24.169 36.463-24.169 58.347v567.328c0 21.806 8.587 42.819 24.118 58.351zM167.802 855.443c-5.472 0-10.719-2.173-14.588-6.042-3.813-3.813-5.991-9.036-5.991-14.587v-567.328c0-5.47 2.173-10.718 6.042-14.588 3.869-3.866 9.116-6.042 14.587-6.042h103.15c17.091 0 30.945-13.854 30.945-30.942v-131.593l153.475 153.472c5.803 5.803 13.67 9.062 21.879 9.062h287.996c5.547 0 10.731 2.176 14.524 5.99l124.553 124.501c0.009 0.009 0.017 0.017 0.026 0.026 3.917 3.951 6.080 9.22 6.080 14.669v442.771c0 5.471-2.172 10.718-6.042 14.587s-9.118 6.042-14.588 6.042h-722.050zM735.155 711.033c17.088 0 30.942-13.855 30.942-30.945v-206.301c0-17.092-13.854-30.946-30.942-30.946-17.092 0-30.946 13.854-30.946 30.946v206.301c0 17.090 13.854 30.945 30.946 30.945zM528.905 711.033c17.088 0 30.942-13.855 30.942-30.945v-206.301c0-17.092-13.854-30.946-30.942-30.946-17.092 0-30.946 13.854-30.946 30.946v206.301c0 17.090 13.854 30.945 30.946 30.945z" />
<glyph unicode="&#xe91c;" glyph-name="brand-twitter" d="M967.706 811.261c10.355-0.087 20.489-3.004 29.308-8.437 8.815-5.433 15.979-13.174 20.71-22.385s6.857-19.542 6.14-29.873c-0.717-10.331-4.245-20.27-10.206-28.739l-57.207-81.309c-3.511-279.229-96.9-468.806-277.581-563.508-86.101-42.79-181.231-64.239-277.362-62.532-118.869-2.735-236.333 26.142-340.389 83.669-7 4.706-12.41 11.418-15.517 19.26s-3.765 16.439-1.887 24.661c1.758 8.346 6.004 15.957 12.18 21.841 6.175 5.879 13.988 9.749 22.408 11.098 69.903 9.766 138.739 26.052 205.606 48.644-299.652 138.628-234.319 450.247-205.771 545.94 2.783 9.501 8.016 18.102 15.174 24.94s15.988 11.674 25.606 14.022c9.617 2.347 19.683 2.124 29.187-0.649s18.111-7.995 24.958-15.145c87.712-90.38 204.010-147.607 329.133-161.959-2.219 33.625 2.978 67.327 15.228 98.721 12.245 31.393 31.245 59.711 55.65 82.948 42.278 40.124 98.402 62.401 156.689 62.196s114.253-22.875 156.25-63.295l81.694-0.11zM122.662 126.528c102.226-47.872 341.815-99.866 530.731-0.875 162.236 85.039 245.739 259.793 248.209 519.421 0.111 8.585 2.833 16.933 7.799 23.937l59.345 84.439-2.249 2.91c-28.437 0.384-56.495 0.768-85.099 0-11.153 0.255-21.828 4.569-30.029 12.133-31.607 32.035-74.513 50.396-119.509 51.135s-88.486-16.201-121.126-47.182c-20.962-19.938-36.634-44.783-45.594-72.291-8.964-27.508-10.935-56.815-5.739-85.277 0.956-5.302 0.691-10.752-0.772-15.936-1.468-5.184-4.092-9.967-7.68-13.985-3.439-4.053-7.821-7.199-12.762-9.161s-10.287-2.681-15.569-2.093c-147.508 10.294-286.015 74.717-388.922 180.9-36.784-114.085-83.45-389.47 212.413-497.681 6.227-2.236 11.685-6.204 15.731-11.435 4.047-5.235 6.513-11.516 7.108-18.103 0.669-6.49-0.524-13.035-3.441-18.867s-7.437-10.714-13.029-14.071c-72.298-35.255-149.969-58.21-229.818-67.917z" />
<glyph unicode="&#xe91d;" glyph-name="brand-vimeo" d="M314.481 786.053c-63.054-13.739-134.845-60.117-211.414-136.576-21.995-21.973-51.646-55.168-56.836-63.531-7.503-12.288-5.293-15.829 27.647-43.691 40.084-33.92 43.835-35.030 69.992-20.95 16.958 9.131 41.522 18.603 51.852 19.926l8.376 1.067 4.419-9.984c2.415-5.504 8.017-20.736 12.385-33.877 8.171-24.363 13.515-41.899 58.84-194.261 26.26-88.235 40.392-128 52.416-147.925 22.354-36.907 53.445-64.469 89.468-79.317 24.871-10.24 42.138-13.483 65.78-12.245 45.013 2.347 69.474 13.653 161.463 74.624 194.505 128.939 315.836 268.245 359.565 412.886 21.892 72.32 20.762 119.68-3.853 162.944-8.546 15.724-20.851 29.841-36.169 41.495s-33.331 20.603-52.941 26.302c-14.797 4.565-20.399 5.333-43.729 6.059-42.142 1.323-76.211-3.669-111.616-16.341-53.474-19.633-97.122-54.018-123.541-97.323-13.773-22.699-30.268-72.704-27.648-83.755 1.545-6.4 7.966-11.307 17.783-13.483 9.041-2.048 13.978-1.024 32.32 6.699 17.988 7.595 34.948 8.832 42.295 3.115 14.903-11.605 14.852-48.171-0.102-83.67-14.182-33.749-64.802-100.523-95.428-125.952-17.835-14.805-19.529-15.317-25.801-7.424-7.552 9.472-20.655 39.467-33.092 75.861-15.159 44.203-19.989 62.976-33.865 132.182-17.165 85.589-26.982 116.437-46.818 147.883-21.069 33.408-51.336 54.699-86.332 60.757-16.753 2.901-48.563 2.176-65.418-1.493zM382.52 741.722c13.567-5.547 25.489-15.701 34.996-29.867 18.704-27.776 27.596-55.552 44.244-138.155 14.135-69.931 15.522-75.862 27.908-115.371 12.228-39.125 29.7-82.773 39.927-99.84 38.080-63.616 96.405-45.397 171.072 53.333 44.557 59.008 60.642 93.952 62.643 136.107 0.823 17.323 0.311 24.619-2.364 33.28-5.035 16.384-12.075 27.904-22.148 36.267-13.722 11.392-25.899 15.573-48.358 16.597l-18.961 0.896 6.886 13.141c12.506 24.151 31.868 45.429 56.431 62.013 24.567 16.585 53.606 27.982 84.634 33.219 21.995 3.755 56.525 4.523 71.633 1.621 37.001-7.083 68.655-37.333 77.598-74.155 4.881-20.053 2.931-59.733-4.267-87.040-42.394-160.299-171.174-303.104-402.731-446.678-38.801-24.064-61.41-31.744-87.62-29.739-36.075 2.773-75.49 31.787-97.896 72.064-8.89 16-24.512 60.971-44.657 128.725l-36.023 121.173c-35.715 120.15-44.965 140.416-68.861 150.528-19.631 8.32-45.222 5.504-81.297-8.96l-21.429-8.576-9.918 8.107c-5.447 4.437-9.918 8.917-9.918 9.856 0.103 4.821 57.915 61.141 91.369 88.96 50.515 42.069 83.404 61.824 121.021 72.661 14.595 4.224 19.374 4.779 36.332 4.437 15.879-0.341 21.429-1.195 29.754-4.608z" />
<glyph unicode="&#xe91e;" glyph-name="brand-wordpress" d="M360.458 594.667c0 16.201 13.133 29.333 29.333 29.333h146.665c16.201 0 29.333-13.133 29.333-29.333s-13.133-29.333-29.333-29.333h-146.665c-16.2 0-29.333 13.133-29.333 29.333zM91.542 594.667c0 16.201 13.133 29.333 29.333 29.333h122.222c16.201 0 29.333-13.133 29.333-29.333s-13.133-29.333-29.333-29.333h-122.222c-16.201 0-29.333 13.133-29.333 29.333zM455.373 622.966c15.629 4.263 31.757-4.952 36.019-20.582l125.001-458.342 162.116 364.762c6.579 14.801 23.915 21.47 38.716 14.891 14.805-6.579 21.474-23.915 14.895-38.72l-195.558-440c-5.035-11.337-16.661-18.278-29.030-17.335s-22.81 9.562-26.074 21.53l-146.667 537.78c-4.262 15.629 4.954 31.755 20.582 36.017zM185.28 622.619c15.438 4.912 31.935-3.621 36.847-19.059l147.227-462.714 115.638 269.82c6.379 14.891 23.625 21.786 38.515 15.407 14.891-6.383 21.79-23.629 15.407-38.519l-146.667-342.221c-4.826-11.26-16.144-18.338-28.381-17.745s-22.818 8.73-26.533 20.407l-171.111 537.777c-4.912 15.438 3.621 31.934 19.058 36.847zM693.461 732.867c13.278 22.009 36.297 37.8 69.082 37.8 33.643 0 65.702-11.322 88.627-39.167 22.161-26.919 32.371-65.199 32.371-112.389 0-34.931-12.676-64.157-24.794-86.324-4.514-8.26-9.34-16.205-13.397-22.878-1.28-2.108-2.483-4.092-3.575-5.918-5.124-8.55-7.629-13.397-8.644-16.427-4.57-13.632-18.347-21.943-32.533-19.627-14.191 2.317-24.61 14.575-24.61 28.949 0 22.161-12.941 34.739-39.757 60.212-24.879 23.627-58.022 56.363-58.022 114.372 0 17.827 3.145 41.324 15.253 61.396zM743.693 702.561c-4.412-7.319-6.818-18.752-6.818-31.090 0-31.457 15.744-49.028 39.757-71.833 1.481-1.408 3.025-2.856 4.617-4.349 8.883-8.325 19.238-18.035 28.454-29.803 8.9 17.15 15.172 34.701 15.172 53.625 0 39.832-8.759 62.664-18.995 75.1-9.481 11.511-23.253 17.789-43.337 17.789-6.4 0-10.133-1.397-12.378-2.702-2.304-1.341-4.471-3.421-6.473-6.737zM332.394 881.607c56.942 23.587 117.974 35.726 179.606 35.726s122.662-12.14 179.605-35.726c56.943-23.586 108.681-58.157 152.265-101.738 43.58-43.582 78.153-95.321 101.739-152.263s35.725-117.974 35.725-179.606c0-61.632-12.139-122.662-35.725-179.605s-58.159-108.681-101.739-152.265c-43.584-43.58-95.322-78.153-152.265-101.739s-117.973-35.725-179.605-35.725c-61.632 0-122.664 12.139-179.606 35.725s-108.681 58.159-152.263 101.739c-43.581 43.584-78.152 95.322-101.739 152.265s-35.726 117.973-35.726 179.605c0 61.632 12.14 122.664 35.726 179.606s58.157 108.681 101.739 152.263c43.582 43.581 95.321 78.152 152.263 101.738zM512 858.667c-53.931 0-107.331-10.622-157.155-31.26s-95.096-50.887-133.23-89.021c-38.134-38.134-68.384-83.405-89.021-133.23s-31.26-103.225-31.26-157.155c0-53.931 10.622-107.332 31.26-157.154 20.638-49.826 50.887-95.095 89.021-133.231s83.405-68.382 133.23-89.020c49.824-20.638 103.225-31.262 157.155-31.262s107.332 10.624 157.154 31.262c49.826 20.638 95.095 50.884 133.231 89.020s68.382 83.405 89.020 133.231c20.638 49.822 31.262 103.223 31.262 157.154s-10.624 107.331-31.262 157.155c-20.638 49.824-50.884 95.096-89.020 133.23s-83.405 68.384-133.231 89.021c-49.822 20.638-103.223 31.26-157.154 31.26z" />
<glyph unicode="&#xe91f;" glyph-name="brand-x" d="M88.548 858.355c5.071 10.006 15.335 16.312 26.553 16.312h211.696c9.483 0 18.397-4.518 24.005-12.164l582.1-793.796c6.635-9.050 7.62-21.056 2.551-31.061-5.073-10.005-15.339-16.311-26.556-16.311h-211.695c-9.481 0-18.398 4.518-24.004 12.164l-582.103 793.798c-6.633 9.046-7.618 21.053-2.548 31.059zM173.843 815.132l538.443-734.261h137.873l-538.447 734.261h-137.869zM926.396 862.44c9.685-9.687 9.685-25.393 0-35.081l-335.974-335.975c-9.69-9.685-25.395-9.685-35.085 0-9.685 9.69-9.685 25.395 0 35.081l335.979 335.976c9.685 9.687 25.391 9.687 35.081 0zM468.373 404.42c9.69-9.69 9.69-25.395 0-35.085l-335.776-335.774c-9.687-9.69-25.394-9.69-35.081 0-9.687 9.685-9.687 25.391 0 35.081l335.777 335.778c9.685 9.685 25.395 9.685 35.081 0z" />
<glyph unicode="&#xe920;" glyph-name="brand-xbox" d="M332.394 881.607c56.942 23.587 117.974 35.726 179.606 35.726s122.662-12.14 179.605-35.726c56.943-23.586 108.681-58.157 152.265-101.738 43.58-43.582 78.153-95.321 101.739-152.263s35.725-117.974 35.725-179.606c0-61.632-12.139-122.662-35.725-179.605s-58.159-108.681-101.739-152.265c-43.584-43.58-95.322-78.153-152.265-101.739s-117.973-35.725-179.605-35.725c-61.632 0-122.664 12.139-179.606 35.725s-108.681 58.159-152.263 101.739c-43.581 43.584-78.152 95.322-101.739 152.265s-35.726 117.973-35.726 179.605c0 61.632 12.14 122.664 35.726 179.606s58.157 108.681 101.739 152.263c43.582 43.581 95.321 78.152 152.263 101.738zM512 858.667c-53.931 0-107.331-10.622-157.155-31.26s-95.096-50.887-133.23-89.021c-38.134-38.134-68.384-83.405-89.021-133.23s-31.26-103.225-31.26-157.155c0-53.931 10.622-107.332 31.26-157.154 20.638-49.826 50.887-95.095 89.021-133.231s83.405-68.382 133.23-89.020c49.824-20.638 103.225-31.262 157.155-31.262s107.332 10.624 157.154 31.262c49.826 20.638 95.095 50.884 133.231 89.020s68.382 83.405 89.020 133.231c20.638 49.822 31.262 103.223 31.262 157.154s-10.624 107.331-31.262 157.155c-20.638 49.824-50.884 95.096-89.020 133.23s-83.405 68.384-133.231 89.021c-49.822 20.638-103.223 31.26-157.154 31.26zM214.903 798.484c4.563 15.545 20.863 24.447 36.407 19.884 371.302-108.985 496.55-360.299 610.854-589.658 6.089-12.215 12.147-24.367 18.206-36.433 7.275-14.477 1.434-32.107-13.043-39.377-14.477-7.275-32.107-1.434-39.381 13.043-5.794 11.537-11.558 23.091-17.327 34.645-114.607 229.636-229.491 459.828-575.832 561.487-15.545 4.563-24.447 20.863-19.884 36.407zM808.973 798.484c4.561-15.544-4.339-31.845-19.887-36.407-346.338-101.659-461.225-331.851-575.831-561.487-5.767-11.554-11.534-23.108-17.329-34.645-7.272-14.477-24.903-20.318-39.379-13.043-14.476 7.27-20.317 24.9-13.044 39.377 6.061 12.066 12.117 24.218 18.205 36.433 114.306 229.359 239.556 480.672 610.857 589.658 15.543 4.563 31.842-4.34 36.407-19.884z" />
<glyph unicode="&#xe921;" glyph-name="brand-yahoo" d="M42.667 756.981c0 17.867 14.484 32.351 32.351 32.351h269.593c17.867 0 32.351-14.484 32.351-32.351s-14.484-32.351-32.351-32.351h-269.593c-17.867 0-32.351 14.484-32.351 32.351zM258.333 109.956c0 17.869 14.484 32.354 32.351 32.354h377.428c17.869 0 32.354-14.485 32.354-32.354 0-17.865-14.485-32.35-32.354-32.35h-377.428c-17.867 0-32.351 14.485-32.351 32.35zM135.907 782.419c14.049 11.039 34.387 8.598 45.425-5.451l296.551-377.429c4.48-5.7 6.912-12.74 6.912-19.989v-269.594c0-17.865-14.481-32.35-32.35-32.35s-32.351 14.485-32.351 32.35v258.406l-289.639 368.631c-11.039 14.049-8.598 34.387 5.451 45.425zM800.841 669.855c11.439-13.726 9.583-34.125-4.143-45.564l-323.511-269.594c-13.726-11.435-34.125-9.583-45.564 4.143-11.436 13.726-9.582 34.125 4.143 45.564l323.511 269.594c13.726 11.438 34.125 9.584 45.564-4.142zM554.876 649.143c0 17.867 14.485 32.351 32.35 32.351h269.594c17.865 0 32.35-14.484 32.35-32.351s-14.485-32.351-32.35-32.351h-269.594c-17.865 0-32.35 14.484-32.35 32.351zM991.642 519.74c17.869 0 32.354-14.485 32.354-32.35v-215.676c0-17.869-14.485-32.35-32.354-32.35-17.865 0-32.35 14.481-32.35 32.35v215.676c0 17.865 14.485 32.35 32.35 32.35zM991.642 142.31c17.869 0 32.354-14.485 32.354-32.354v-0.538c0-17.865-14.485-32.35-32.354-32.35-17.865 0-32.35 14.485-32.35 32.35v0.538c0 17.869 14.485 32.354 32.35 32.354z" />
<glyph unicode="&#xe922;" glyph-name="brand-youtube" d="M643.038 514.027l-172.151 99.123c-10.108 5.819-21.568 8.878-33.229 8.869-11.665-0.009-23.121-3.084-33.22-8.918s-18.486-14.221-24.32-24.32c-5.834-10.099-8.909-21.555-8.918-33.218v-198.153c-0.141-23.748 12.531-45.713 33.135-57.446 10.102-5.901 21.588-9.020 33.289-9.037 11.699-0.017 23.194 3.072 33.31 8.943l172.105 99.123c10.112 5.811 18.509 14.187 24.35 24.282s8.913 21.551 8.913 33.212c0 11.661-3.072 23.117-8.913 33.212s-14.238 18.47-24.35 24.282v0.047zM619.571 439.778l-172.058-99.17c-2.982-1.749-6.374-2.671-9.83-2.671-3.46 0-6.852 0.922-9.835 2.671-2.984 1.69-5.459 4.147-7.168 7.121-1.709 2.97-2.589 6.349-2.547 9.775v198.059c-0.033 3.42 0.851 6.787 2.559 9.75s4.18 5.414 7.156 7.099c2.957 1.799 6.349 2.75 9.809 2.75s6.852-0.951 9.809-2.75l172.105-99.17c2.97-1.677 5.436-4.113 7.155-7.057 1.719-2.94 2.624-6.289 2.624-9.698s-0.905-6.758-2.624-9.702c-1.719-2.944-4.186-5.329-7.155-7.006zM840.533 832h-657.067c-37.331-0.037-73.123-14.883-99.52-41.28s-41.243-62.188-41.28-99.52v-469.333c0.037-37.329 14.883-73.122 41.28-99.52s62.188-41.242 99.52-41.28h657.067c37.329 0.038 73.122 14.882 99.52 41.28s41.242 62.191 41.28 99.52v469.333c-0.038 37.331-14.882 73.123-41.28 99.52s-62.191 41.243-99.52 41.28zM934.4 221.867c-0.038-24.883-9.937-48.738-27.533-66.334s-41.451-27.494-66.334-27.533h-657.067c-24.884 0.038-48.737 9.937-66.333 27.533s-27.497 41.451-27.534 66.334v469.333c0.037 24.884 9.939 48.737 27.534 66.333s41.449 27.497 66.333 27.534h657.067c24.883-0.037 48.738-9.939 66.334-27.534s27.494-41.449 27.533-66.333v-469.333z" />
<glyph unicode="&#xe923;" glyph-name="brightness" d="M512 917.333c9.335 0 18.287-3.709 24.892-10.31 6.601-6.601 10.308-15.555 10.308-24.89v-70.4c0-9.335-3.708-18.289-10.308-24.89-6.605-6.601-15.556-10.31-24.892-10.31s-18.287 3.709-24.892 10.31c-6.601 6.601-10.308 15.555-10.308 24.89v70.4c0 9.335 3.708 18.289 10.308 24.89 6.605 6.601 15.556 10.31 24.892 10.31zM512 213.333c62.238 0 121.924 24.725 165.935 68.732 44.006 44.011 68.732 103.697 68.732 165.935s-24.725 121.926-68.732 165.935c-44.011 44.009-103.697 68.732-165.935 68.732s-121.926-24.724-165.935-68.732c-44.009-44.009-68.732-103.697-68.732-165.935s24.724-121.924 68.732-165.935c44.009-44.006 103.697-68.732 165.935-68.732zM512 283.733c-21.572 0-42.931 4.25-62.861 12.506-19.93 8.252-38.039 20.352-53.293 35.605s-27.354 33.365-35.609 53.295c-8.255 19.93-12.504 41.289-12.504 62.861s4.249 42.931 12.504 62.861c8.255 19.93 20.355 38.039 35.609 53.293s33.364 27.354 53.293 35.609c19.93 8.255 41.289 12.504 62.861 12.504 43.567 0 85.346-17.306 116.156-48.113 30.805-30.806 48.111-72.587 48.111-116.154s-17.306-85.346-48.111-116.156c-30.81-30.805-72.589-48.111-116.156-48.111zM946.133 412.8c9.335 0 18.287 3.708 24.892 10.308 6.601 6.605 10.308 15.556 10.308 24.892s-3.708 18.287-10.308 24.892c-6.605 6.601-15.556 10.308-24.892 10.308h-70.4c-9.335 0-18.287-3.708-24.892-10.308-6.601-6.605-10.308-15.556-10.308-24.892s3.708-18.287 10.308-24.892c6.605-6.601 15.556-10.308 24.892-10.308h70.4zM512 119.467c9.335 0 18.287-3.708 24.892-10.308 6.601-6.605 10.308-15.556 10.308-24.892v-70.4c0-9.335-3.708-18.287-10.308-24.892-6.605-6.601-15.556-10.308-24.892-10.308s-18.287 3.708-24.892 10.308c-6.601 6.605-10.308 15.556-10.308 24.892v70.4c0 9.335 3.708 18.287 10.308 24.892 6.605 6.601 15.556 10.308 24.892 10.308zM148.267 412.8c9.335 0 18.289 3.708 24.89 10.308 6.601 6.605 10.31 15.556 10.31 24.892s-3.709 18.287-10.31 24.892c-6.601 6.601-15.555 10.308-24.89 10.308h-70.4c-9.335 0-18.289-3.708-24.89-10.308-6.601-6.605-10.31-15.556-10.31-24.892s3.709-18.287 10.31-24.892c6.601-6.601 15.555-10.308 24.89-10.308h70.4zM146.859 813.141c6.6 6.592 15.546 10.294 24.875 10.294s18.275-3.702 24.875-10.294l70.4-70.4c6.218-6.673 9.603-15.498 9.442-24.617s-3.855-17.82-10.304-24.269c-6.449-6.449-15.15-10.144-24.269-10.304s-17.945 3.224-24.617 9.442l-70.4 70.4c-6.592 6.6-10.294 15.546-10.294 24.875s3.702 18.275 10.294 24.875zM196.608 82.859c-3.223-3.46-7.109-6.234-11.427-8.158s-8.979-2.957-13.705-3.038c-4.726-0.085-9.421 0.785-13.804 2.556s-8.364 4.403-11.707 7.748c-3.343 3.341-5.978 7.322-7.748 11.703-1.77 4.386-2.64 9.079-2.556 13.807 0.083 4.723 1.118 9.387 3.042 13.705s4.698 8.205 8.156 11.426l70.4 70.4c3.223 3.46 7.109 6.234 11.427 8.158 4.318 1.92 8.979 2.957 13.705 3.042 4.726 0.081 9.421-0.789 13.804-2.56s8.364-4.403 11.707-7.748c3.343-3.341 5.978-7.322 7.748-11.703 1.77-4.386 2.64-9.079 2.556-13.807-0.083-4.723-1.118-9.387-3.042-13.705s-4.698-8.205-8.156-11.426l-70.4-70.4zM877.141 813.141c-6.601 6.592-15.548 10.294-24.875 10.294s-18.274-3.702-24.875-10.294l-70.4-70.4c-6.217-6.673-9.604-15.498-9.442-24.617s3.857-17.82 10.304-24.269c6.451-6.449 15.151-10.144 24.269-10.304 9.122-0.161 17.946 3.224 24.619 9.442l70.4 70.4c6.592 6.6 10.295 15.546 10.295 24.875s-3.703 18.275-10.295 24.875zM827.392 82.859c3.221-3.46 7.108-6.234 11.426-8.158s8.981-2.957 13.705-3.038c4.727-0.085 9.421 0.785 13.807 2.556 4.382 1.771 8.363 4.403 11.703 7.748 3.345 3.341 5.978 7.322 7.748 11.703 1.771 4.386 2.641 9.079 2.556 13.807-0.081 4.723-1.114 9.387-3.038 13.705s-4.698 8.205-8.158 11.426l-70.4 70.4c-3.221 3.46-7.108 6.234-11.426 8.158-4.318 1.92-8.981 2.957-13.705 3.042-4.727 0.081-9.421-0.789-13.807-2.56-4.382-1.771-8.363-4.403-11.703-7.748-3.345-3.341-5.978-7.322-7.748-11.703-1.771-4.386-2.641-9.079-2.56-13.807 0.085-4.723 1.122-9.387 3.042-13.705 1.924-4.318 4.698-8.205 8.158-11.426l70.4-70.4z" />
<glyph unicode="&#xe924;" glyph-name="cart" d="M42.734 883.817c0 8.889 3.531 17.414 9.817 23.7s14.811 9.817 23.7 9.817h29.361c48.733 0 76.753-31.707 92.975-63.346 11.060-21.652 19.037-48.063 25.674-70.988h690.108c10.355-0.003 20.574-2.406 29.845-7.021s17.353-11.316 23.599-19.577c6.246-8.261 10.496-17.858 12.412-28.037s1.446-20.663-1.37-30.631l-100.284-353.6c-7.974-28.053-24.883-52.74-48.158-70.319s-51.648-27.085-80.815-27.081h-340.46c-29.409-0.009-58.006 9.651-81.384 27.494-23.378 17.839-40.241 42.876-47.99 71.245l-43.035 157.862c-0.247 0.708-0.47 1.425-0.67 2.146l-69.111 234.416-6.703 22.59c-6.703 23.194-12.602 43.706-21.451 60.933-10.659 20.78-20.445 26.813-33.249 26.813h-29.36c-8.889 0-17.414 3.531-23.7 9.817s-9.817 14.81-9.817 23.7l0.067 0.067zM300.678 523.58l43.773-160.61c3.881-14.178 12.315-26.688 24.003-35.605 11.689-8.913 25.983-13.739 40.684-13.734h340.529c14.575 0.017 28.749 4.783 40.375 13.577 11.622 8.794 20.066 21.137 24.043 35.157l100.284 353.602h-670.333l56.643-192.386zM512.166 79.215c0-26.667-10.594-52.241-29.449-71.1-18.859-18.854-44.433-29.449-71.1-29.449s-52.243 10.594-71.099 29.449c-18.857 18.859-29.451 44.433-29.451 71.1 0 26.671 10.594 52.245 29.451 71.1 18.857 18.859 44.432 29.453 71.099 29.453s52.241-10.594 71.1-29.453c18.854-18.854 29.449-44.429 29.449-71.1zM445.133 79.215c0 8.892-3.529 17.417-9.813 23.701-6.289 6.285-14.813 9.818-23.702 9.818s-17.414-3.533-23.7-9.818c-6.285-6.285-9.817-14.81-9.817-23.701 0-8.887 3.532-17.412 9.817-23.697s14.811-9.818 23.7-9.818c8.889 0 17.413 3.533 23.702 9.818 6.285 6.285 9.813 14.81 9.813 23.697zM847.334 79.215c0-26.667-10.594-52.241-29.453-71.1-18.854-18.854-44.429-29.449-71.095-29.449-26.671 0-52.245 10.594-71.1 29.449-18.859 18.859-29.453 44.433-29.453 71.1 0 26.671 10.594 52.245 29.453 71.1 18.854 18.859 44.429 29.453 71.1 29.453 26.667 0 52.241-10.594 71.095-29.453 18.859-18.854 29.453-44.429 29.453-71.1zM780.301 79.215c0 8.892-3.533 17.417-9.818 23.701s-14.81 9.818-23.697 9.818c-8.892 0-17.417-3.533-23.701-9.818s-9.818-14.81-9.818-23.701c0-8.887 3.533-17.412 9.818-23.697s14.81-9.818 23.701-9.818c8.887 0 17.412 3.533 23.697 9.818s9.818 14.81 9.818 23.697z" />
<glyph unicode="&#xe925;" glyph-name="cart-cross" d="M538.492 581.661c-3.426 3.68-7.565 6.633-12.16 8.68s-9.553 3.148-14.583 3.237c-5.030 0.089-10.027-0.836-14.69-2.72-4.668-1.884-8.905-4.689-12.463-8.246-3.554-3.558-6.362-7.795-8.243-12.459-1.886-4.665-2.812-9.661-2.722-14.691s1.19-9.991 3.238-14.586c2.048-4.595 5.001-8.729 8.678-12.16l48.452-48.452-48.452-48.448c-3.678-3.43-6.63-7.565-8.678-12.16s-3.149-9.557-3.238-14.588c-0.090-5.030 0.836-10.027 2.722-14.69 1.882-4.663 4.689-8.9 8.243-12.459 3.558-3.558 7.795-6.362 12.463-8.247 4.663-1.882 9.66-2.807 14.69-2.718 5.030 0.085 9.988 1.186 14.583 3.234s8.734 5.001 12.16 8.683l48.452 48.448 48.448-48.448c3.43-3.682 7.569-6.635 12.164-8.683s9.553-3.149 14.583-3.234c5.030-0.090 10.027 0.836 14.69 2.718 4.668 1.886 8.905 4.689 12.459 8.247 3.558 3.558 6.362 7.795 8.247 12.459s2.807 9.66 2.722 14.69c-0.090 5.030-1.19 9.993-3.238 14.588s-5.001 8.73-8.678 12.16l-48.452 48.448 48.452 48.452c3.678 3.43 6.63 7.564 8.678 12.16s3.149 9.556 3.238 14.586c0.085 5.030-0.836 10.026-2.722 14.691s-4.689 8.902-8.247 12.459c-3.554 3.557-7.791 6.362-12.459 8.246-4.663 1.884-9.66 2.809-14.69 2.72s-9.988-1.19-14.583-3.237c-4.595-2.048-8.734-5-12.164-8.68l-48.448-48.452-48.452 48.452zM2.175 892.292c3.293 9.371 10.174 17.051 19.128 21.35s19.25 4.866 28.622 1.576l15.034-5.295c30.819-10.839 56.942-20.029 77.571-30.119 21.977-10.839 40.858-24.125 55.043-44.904 14.086-20.579 19.93-43.206 22.577-68.030l0.55-5.395h572.012c40.909 0 82.564 0 116.877-3.846 17.485-1.948 34.816-5.045 50.099-10.439 14.985-5.245 31.518-13.885 43.255-29.17 19.081-24.774 22.43-53.645 20.629-82.915-1.749-27.872-8.64-62.536-16.883-103.745l-0.499-2.645-0.098-0.201-25.374-123.371c-7.492-36.267-13.786-66.782-21.931-90.91-8.589-25.472-20.476-47.949-41.805-65.331-21.329-17.331-45.751-24.474-72.474-27.772-25.225-3.098-56.444-3.098-93.406-3.098h-270.071c-67.181 0-121.625 0-164.481 6.093-44.804 6.345-82.415 19.981-112.035 51.247-27.322 28.774-41.907 59.341-49.199 101.999-6.843 39.957-7.492 92.305-7.492 164.829v135.96c0 36.962-0.1 61.687-2.148 80.667-1.998 18.131-5.445 27.222-9.99 33.815-4.345 6.444-10.988 12.487-26.173 19.88-16.133 7.892-38.061 15.684-71.426 27.422l-12.987 4.545c-4.65 1.625-8.935 4.152-12.607 7.436s-6.662 7.259-8.796 11.699c-2.134 4.44-3.372 9.258-3.642 14.176s0.483 9.843 2.119 14.49zM222.698 686.554v-144.352c0-74.375 0.899-119.777 6.493-152.195 5.045-29.717 13.686-46.199 29.67-63.083 13.636-14.387 32.466-23.578 68.18-28.621 36.962-5.244 86.112-5.346 156.838-5.346h264.93c39.906 0 66.428 0.051 86.609 2.5 19.081 2.347 27.972 6.443 34.214 11.537s11.989 12.988 18.18 31.219c6.494 19.23 11.887 45.201 19.981 84.309l24.875 120.878v0.1c8.892 44.454 14.733 74.024 16.081 96.201 1.301 21.028-1.997 28.421-5.043 32.466-2.667 1.959-5.662 3.431-8.841 4.346-10.914 3.437-22.17 5.681-33.566 6.693-29.717 3.297-67.379 3.347-110.135 3.347h-568.466zM199.821 55.701c0-29.803 11.841-58.389 32.917-79.467s49.661-32.917 79.468-32.917c29.807 0 58.392 11.84 79.468 32.917s32.916 49.664 32.916 79.467c0 29.807-11.84 58.394-32.916 79.471-21.076 21.073-49.661 32.913-79.468 32.913s-58.391-11.84-79.468-32.913c-21.076-21.077-32.917-49.664-32.917-79.471zM312.206 18.24c-9.935 0-19.464 3.947-26.489 10.974s-10.972 16.555-10.972 26.487c0 9.937 3.947 19.465 10.972 26.492 7.025 7.023 16.554 10.97 26.489 10.97s19.464-3.947 26.489-10.97c7.025-7.027 10.973-16.555 10.973-26.492 0-9.933-3.947-19.46-10.973-26.487s-16.554-10.974-26.489-10.974zM649.357 55.701c0-14.758 2.91-29.372 8.559-43.008 5.645-13.632 13.922-26.022 24.358-36.459s22.827-18.714 36.463-24.363c13.632-5.645 28.25-8.555 43.008-8.555s29.372 2.91 43.004 8.555c13.636 5.649 26.027 13.926 36.463 24.363s18.714 22.827 24.363 36.459c5.645 13.636 8.555 28.25 8.555 43.008 0 29.807-11.84 58.394-32.917 79.471-21.077 21.073-49.664 32.913-79.467 32.913-29.807 0-58.394-11.84-79.471-32.913-21.073-21.077-32.917-49.664-32.917-79.471zM761.745 18.24c-9.937 0-19.465 3.947-26.492 10.974-7.023 7.027-10.97 16.555-10.97 26.487 0 9.937 3.947 19.465 10.97 26.492 7.027 7.023 16.555 10.97 26.492 10.97 9.933 0 19.46-3.947 26.487-10.97 7.027-7.027 10.974-16.555 10.974-26.492 0-9.933-3.947-19.46-10.974-26.487s-16.555-10.974-26.487-10.974z" />
<glyph unicode="&#xe926;" glyph-name="check" d="M961.694 769.696c26.185-26.184 26.185-68.636 0-94.82l-536.379-536.38c-26.184-26.185-68.636-26.185-94.819 0l-268.191 268.19c-26.184 26.185-26.184 68.634 0 94.818s68.636 26.185 94.82 0l220.78-220.779 488.971 488.97c26.185 26.184 68.638 26.184 94.818 0z" />
<glyph unicode="&#xe927;" glyph-name="check-2" d="M968.030 776.030c17.737-17.737 17.737-46.495 0-64.233l-605.591-605.592c-17.737-17.737-46.495-17.737-64.233 0l-242.237 242.236c-17.737 17.737-17.737 46.498 0 64.235s46.495 17.737 64.233 0l210.121-210.121 573.477 573.475c17.737 17.737 46.494 17.737 64.23 0z" />
<glyph unicode="&#xe928;" glyph-name="clock" d="M490.667 21.333c-88.606 0-175.222 26.274-248.895 75.503-73.673 49.225-131.095 119.194-165.003 201.054s-42.78 171.938-25.494 258.843c17.286 86.903 59.954 166.73 122.608 229.384s142.48 105.322 229.384 122.608c86.905 17.286 176.983 8.414 258.843-25.494s151.829-91.329 201.054-165.003c49.229-73.673 75.503-160.289 75.503-248.895 0-118.818-47.198-232.768-131.217-316.783-84.015-84.019-197.965-131.217-316.783-131.217zM490.667 853.333c-75.948 0-150.19-22.522-213.339-64.716s-112.367-102.167-141.431-172.334c-29.064-70.167-36.669-147.377-21.852-221.865s51.389-142.912 105.092-196.617c53.704-53.7 122.126-90.274 196.614-105.092 74.488-14.814 151.697-7.211 221.867 21.854 70.165 29.065 130.138 78.281 172.331 141.431 42.197 63.147 64.717 137.391 64.717 213.338 0 101.843-40.457 199.515-112.469 271.529-72.017 72.014-169.685 112.471-271.531 112.471zM637.547 277.333l-178.88 178.88v301.12h64v-274.56l160-160.32-45.12-45.12z" />
<glyph unicode="&#xe929;" glyph-name="close" d="M65.577 894.423c30.548 30.548 80.075 30.548 110.623 0l335.799-335.8 335.799 335.8c30.549 30.548 80.077 30.548 110.622 0 30.549-30.548 30.549-80.075 0-110.623l-335.799-335.799 335.799-335.799c30.549-30.549 30.549-80.077 0-110.622-30.545-30.549-80.073-30.549-110.622 0l-335.799 335.799-335.799-335.799c-30.548-30.549-80.076-30.549-110.623 0-30.548 30.545-30.548 80.073 0 110.622l335.8 335.799-335.8 335.799c-30.548 30.548-30.548 80.076 0 110.623z" />
<glyph unicode="&#xe92a;" glyph-name="compare" d="M284.445 36.693l-40.277 40.563 176.071 176.013h-420.238v56.887h420.238l-176.071 175.957 40.277 40.678 245.079-245.077-245.079-245.022zM739.554 341.901l-245.077 245.022 245.077 245.077 40.277-40.562-176.068-176.071h420.237v-56.889h-420.237l176.068-176.014-40.277-40.563z" />
<glyph unicode="&#xe92b;" glyph-name="delivery" d="M112.478 482.944h418.867v-69.811h-418.867v69.811zM42.667 657.471h349.057v-69.811h-349.057v69.811zM1017.173 461.79l-104.717 244.34c-2.688 6.281-7.164 11.633-12.864 15.393-5.705 3.761-12.386 5.763-19.217 5.76h-104.717v69.812c0 9.257-3.678 18.136-10.223 24.682s-15.424 10.224-24.683 10.224h-558.491v-69.812h523.585v-438.276c-15.906-9.237-29.824-21.53-40.956-36.173-11.132-14.639-19.255-31.339-23.898-49.135h-219.349c-8.496 32.9-28.7 61.577-56.826 80.653-28.126 19.072-62.243 27.23-95.956 22.95-33.713-4.284-64.706-20.715-87.171-46.212s-34.859-58.317-34.859-92.297c0-33.984 12.394-66.803 34.859-92.301s53.458-41.929 87.171-46.212c33.712-4.279 67.829 3.878 95.956 22.95 28.126 19.076 48.331 47.753 56.826 80.653h219.349c7.59-29.956 24.956-56.525 49.348-75.503 24.388-18.982 54.413-29.286 85.316-29.286s60.928 10.304 85.316 29.286c24.393 18.978 41.758 45.547 49.353 75.503h74.765c9.259 0 18.138 3.678 24.683 10.227 6.545 6.545 10.223 15.424 10.223 24.683v244.339c0.004 4.727-0.96 9.408-2.825 13.751zM286.979 133.884c-13.807 0-27.305 4.096-38.785 11.767s-20.428 18.573-25.712 31.33c-5.284 12.757-6.666 26.795-3.973 40.337s9.343 25.98 19.106 35.742c9.763 9.766 22.202 16.414 35.745 19.106 13.542 2.697 27.579 1.31 40.335-3.972s23.66-14.229 31.331-25.711c7.671-11.482 11.765-24.977 11.765-38.784-0.018-18.513-7.38-36.258-20.468-49.344-13.088-13.090-30.834-20.45-49.344-20.471zM775.659 657.472h81.681l74.837-174.528h-156.518v174.528zM775.659 133.884c-13.807 0-27.302 4.096-38.784 11.767s-20.429 18.573-25.711 31.33c-5.286 12.757-6.669 26.795-3.977 40.337 2.697 13.542 9.344 25.98 19.106 35.742 9.766 9.766 22.204 16.414 35.746 19.106 13.542 2.697 27.58 1.31 40.337-3.972 12.753-5.282 23.659-14.229 31.33-25.711s11.763-24.977 11.763-38.784c-0.017-18.513-7.377-36.258-20.467-49.344-13.086-13.090-30.835-20.45-49.344-20.471zM950.187 238.605h-39.859c-7.693 29.897-25.084 56.401-49.455 75.349-24.371 18.953-54.34 29.278-85.214 29.367v69.811h174.528v-174.528z" />
<glyph unicode="&#xe92c;" glyph-name="delivery-parcel" d="M944.623 690.089l-328.205 180.513c-4.847 2.666-10.287 4.064-15.817 4.064-5.534 0-10.974-1.398-15.821-4.064l-328.207-180.513c-5.146-2.833-9.437-6.996-12.426-12.053s-4.565-10.824-4.565-16.698c0-5.874 1.577-11.641 4.565-16.698s7.28-9.219 12.426-12.053l311.204-171.16v-351.804l-99.644 54.81-31.637-57.468 148.284-81.557c4.843-2.675 10.287-4.075 15.821-4.075 5.53 0 10.974 1.399 15.817 4.075l328.205 180.514c5.15 2.829 9.442 6.993 12.433 12.049s4.57 10.825 4.57 16.7v426.668c0 5.875-1.579 11.642-4.57 16.7s-7.283 9.219-12.433 12.051zM600.602 804.371l260.1-143.032-260.1-143.032-260.105 143.032 260.105 143.032zM895.983 254.067l-262.562-144.41v351.804l262.562 144.41v-351.805zM305.231 448.004h-262.565v65.643h262.565v-65.643zM370.873 185.438h-262.565v65.643h262.565v-65.643zM436.514 316.723h-262.565v65.638h262.565v-65.638z" />
<glyph unicode="&#xe92d;" glyph-name="discount" d="M315.718 819.925c-112.768-3.2-164.096-18.261-205.184-60.203-37.248-38.059-55.253-98.432-56.363-189.013-0.256-22.443 0.085-25.344 3.712-33.579 5.248-11.818 17.451-22.656 38.741-34.517 30.421-16.896 40.747-30.72 40.747-54.613s-10.325-37.717-40.747-54.613c-21.333-11.861-33.493-22.699-38.741-34.517-3.541-8.021-3.968-11.392-3.755-30.72 0.256-27.008 3.157-61.184 7.381-85.973 11.307-67.029 42.112-112.683 93.013-137.813 52.693-26.069 99.669-30.037 357.46-30.037 191.915 0 257.621 2.432 301.227 11.179 73.216 14.677 119.381 54.144 140.459 120.149 9.515 29.824 15.573 74.709 16.128 119.637 0.256 22.443-0.085 25.344-3.712 33.579-5.248 11.819-17.451 22.656-38.741 34.517-30.421 16.896-40.747 30.72-40.747 54.613s10.325 37.717 40.747 54.613c21.333 11.861 33.493 22.699 38.741 34.517 3.541 8.064 3.925 11.349 3.712 31.189-0.367 28.642-2.82 57.219-7.339 85.504-11.307 67.029-42.112 112.683-93.013 137.813-38.869 19.243-77.483 25.685-169.728 28.416-63.787 1.835-316.926 1.792-383.998-0.128zM771.098 752.896c64.427-8.448 95.701-25.6 114.261-62.549 12.16-24.32 19.157-61.397 19.712-104.875l0.299-22.229-15.104-8.576c-20.821-11.733-36.011-24.917-46.421-40.234-28.288-41.6-28.288-91.264 0-132.864 10.411-15.275 25.515-28.416 46.379-40.32l15.147-8.619-0.299-22.187c-0.811-62.635-13.355-105.557-38.101-130.475-23.851-23.979-57.515-34.432-126.293-39.125-32.683-2.261-424.702-2.261-457.385 0-68.779 4.693-102.443 15.147-126.293 39.125-24.747 24.917-37.291 67.84-38.101 130.475l-0.299 22.187 15.147 8.619c20.864 11.904 35.968 25.045 46.379 40.32 17.963 26.411 25.173 58.837 19.413 87.253-7.509 36.907-29.099 65.109-65.835 85.845l-15.104 8.576 0.299 22.229c0.555 43.477 7.552 80.555 19.712 104.875 20.779 41.429 59.051 59.051 140.501 64.725 11.221 0.768 121.387 1.28 244.82 1.109 202.709-0.299 226.645-0.597 247.168-3.285zM634.010 606.762c-3.55-0.913-6.985-2.23-10.24-3.925-7.381-3.925-264.489-262.101-267.988-269.056-2.068-4.668-3.040-9.749-2.84-14.852s1.565-10.095 3.992-14.588c7.808-14.165 26.88-19.669 41.685-11.947 8.448 4.395 265.47 261.674 269.566 269.824 2.069 4.67 3.042 9.751 2.842 14.854s-1.566 10.092-3.994 14.586c-3.311 5.58-8.247 10.016-14.148 12.716s-12.484 3.532-18.876 2.388zM388.209 593.28c-7.438-3.313-13.738-8.739-18.115-15.605s-6.639-14.867-6.504-23.008c-0.166-5.524 0.801-11.025 2.839-16.162s5.106-9.804 9.014-13.713c3.908-3.908 8.575-6.976 13.712-9.015 5.137-2.035 10.638-3.004 16.162-2.837 5.52-0.192 11.018 0.777 16.14 2.842s9.757 5.18 13.597 9.148c3.968 3.844 7.083 8.476 9.148 13.598s3.034 10.621 2.842 16.14c0.166 5.525-0.798 11.025-2.837 16.162s-5.107 9.804-9.015 13.712c-3.908 3.908-8.574 6.976-13.711 9.015s-10.638 3.005-16.162 2.839c-6.272 0-12.885-1.195-17.109-3.115zM601.54 379.947c-7.437-3.311-13.734-8.738-18.112-15.607-4.378-6.865-6.639-14.865-6.507-23.006-0.162-5.525 0.802-11.025 2.842-16.162s5.107-9.805 9.015-13.713c3.908-3.908 8.572-6.976 13.709-9.015 5.137-2.035 10.641-3.004 16.162-2.837 5.525-0.166 11.025 0.802 16.162 2.837 5.141 2.039 9.805 5.107 13.713 9.015s6.976 8.576 9.015 13.713c2.039 5.137 3.004 10.637 2.837 16.162 0.192 5.521-0.777 11.017-2.842 16.141-2.065 5.12-5.18 9.754-9.148 13.598-3.84 3.964-8.474 7.083-13.598 9.148-5.12 2.065-10.62 3.034-16.141 2.842-6.272 0-12.885-1.195-17.109-3.115z" />
<glyph unicode="&#xe92e;" glyph-name="discount-2" d="M489.903 915.584c-15.633-2.504-30.869-7.052-45.312-13.525-12.843-5.888-31.149-19.072-57.773-41.643-32.555-27.52-35.669-28.8-80.469-32.683-38.443-3.328-56.235-6.528-72.533-13.013-36.907-14.72-69.419-45.44-85.419-80.768-9.6-21.205-13.184-39.509-17.109-87.125-2.005-24.789-5.803-40.064-12.245-49.408-2.005-2.859-12.587-15.957-23.552-29.099-24.96-29.909-34.304-43.861-41.088-61.312-11.52-29.824-14.421-60.245-8.491-88.875 6.955-33.536 16.299-50.56 49.579-90.453 10.965-13.141 21.547-26.24 23.552-29.099 6.571-9.515 10.325-24.619 12.288-49.408 3.797-47.317 7.424-65.877 17.152-87.296 16.2-33.963 43.587-61.321 77.568-77.483 21.248-9.643 39.893-13.269 87.125-17.067 24.789-1.963 39.893-5.717 49.408-12.288 2.859-2.005 15.957-12.587 29.099-23.552 29.909-24.96 43.863-34.304 61.314-41.088 37.862-15.232 80.149-15.232 118.016 0 17.621 6.827 31.403 16.128 62.677 42.283 36.608 30.592 38.699 31.445 87.381 35.669 34.56 2.987 50.987 5.931 67.328 12.075 38.43 14.942 69.632 44.109 87.125 81.451 9.643 21.248 13.227 39.424 17.109 86.443 3.157 38.571 4.736 41.984 36.736 80.427 25.984 31.189 34.261 43.947 41.6 64.043 13.786 36.233 13.555 76.309-0.64 112.384-6.955 18.517-15.744 31.787-40.96 62.080-32 38.443-33.579 41.856-36.736 80.427-3.883 47.019-7.467 65.195-17.109 86.443-17.587 37.4-48.892 66.598-87.424 81.536-15.061 5.675-33.877 8.917-70.443 12.075-44.8 3.883-47.531 4.992-80.939 33.109-40.533 34.048-57.088 43.904-86.656 51.456-15.104 3.883-44.544 5.461-60.16 3.285zM530.010 829.355c14.123-3.669 19.797-7.381 52.821-34.773 44.715-36.992 67.968-46.976 119.467-51.2 40.832-3.371 50.389-4.992 61.781-10.496 18.731-9.045 34.261-28.16 38.016-46.805 0.939-4.693 3.243-24.789 5.12-44.672 5.589-58.88 12.672-75.648 52.224-123.477 13.568-16.384 26.624-33.792 29.013-38.656 9.515-19.072 9.515-43.349 0.043-62.549-2.389-4.864-13.013-19.2-23.595-31.915-27.947-33.451-29.611-35.755-37.888-51.413-12.245-23.253-15.915-37.845-19.797-78.805-1.877-19.883-4.181-39.979-5.12-44.672-3.541-17.493-19.243-37.717-35.925-46.165-11.392-5.76-18.773-7.125-59.477-11.051-41.301-3.968-58.368-8.149-80.085-19.669-15.403-8.192-19.712-11.307-45.483-33.067-34.731-29.312-47.531-35.968-69.12-35.968s-34.389 6.656-69.12 35.968c-25.815 21.803-30.082 24.875-45.485 33.024-24.192 12.757-37.76 15.915-88.107 20.608-11.97 0.986-23.898 2.436-35.755 4.352-23.637 5.291-46.251 27.776-51.499 51.2-1.939 12.715-3.405 25.493-4.395 38.315-4.139 46.72-6.827 58.496-19.157 83.627-6.571 13.397-13.867 23.637-32.896 46.080-30.251 35.669-35.328 44.672-37.077 65.621-0.879 13.943 2.166 27.849 8.789 40.149 2.219 3.797 13.355 18.005 24.747 31.616 23.040 27.52 33.067 41.941 39.68 57.173 10.069 23.125 11.947 32.299 15.915 76.8 1.493 16.896 3.456 34.133 4.395 38.315 5.205 23.253 27.861 45.909 51.115 51.115 4.181 0.939 21.419 2.901 38.315 4.395 36.693 3.243 46.293 4.821 61.696 10.112 25.344 8.619 36.907 15.915 72.279 45.525 13.611 11.349 27.819 22.485 31.616 24.704 14.933 8.789 35.029 11.307 52.949 6.656zM632.239 624.683c-12.288-6.144-292.61-286.72-297.602-297.856-3.457-7.898-4.492-16.64-2.973-25.126 1.519-8.482 5.524-16.329 11.506-22.532 6.206-5.982 14.048-9.988 22.533-11.507s17.23-0.482 25.126 2.974c11.136 4.992 291.714 285.312 297.858 297.6 2.492 5.107 3.942 10.661 4.258 16.335 0.32 5.675-0.499 11.356-2.406 16.71-1.911 5.354-4.868 10.272-8.704 14.467s-8.469 7.581-13.628 9.96c-5.751 2.284-11.908 3.372-18.091 3.196-6.187-0.176-12.271-1.612-17.877-4.22zM380.887 606.976c-9.449-3.46-17.527-9.883-23.025-18.312s-8.123-18.409-7.482-28.451c1.579-18.005 15.616-36.053 31.531-40.448 8.109-2.522 16.753-2.778 24.998-0.742 8.245 2.031 15.777 6.281 21.783 12.288 6.003 6.004 10.253 13.536 12.288 21.781s1.779 16.889-0.742 24.998c-6.443 23.211-35.586 37.376-59.351 28.885zM612.271 375.595c-8.721-3.115-16.29-8.802-21.7-16.316s-8.405-16.495-8.593-25.754c0-18.901 8.021-32.811 24.149-41.728 7.893-4.395 10.88-5.077 21.931-5.035 14.336 0.043 22.827 3.413 32.299 12.885s12.843 17.963 12.885 32.299c0.043 15.317-4.608 26.155-15.061 35.115-6.353 5.107-13.871 8.559-21.884 10.048-8.009 1.489-16.265 0.969-24.026-1.515z" />
<glyph unicode="&#xe92f;" glyph-name="expand" d="M42.667-21.333v293.333h58.667v-193.131l211.2 211.2 41.536-41.536-211.2-211.2h193.131v-58.667h-293.333zM688-21.333v58.667h193.131l-211.2 211.2 41.536 41.536 211.2-211.2v193.131h58.667v-293.333h-293.333zM312.533 605.931l-211.2 211.2v-193.131h-58.667v293.333h293.333v-58.667h-193.131l211.2-211.2-41.536-41.536zM711.467 605.931l-41.536 41.536 211.2 211.2h-193.131v58.667h293.333v-293.333h-58.667v193.131l-211.2-211.2z" />
<glyph unicode="&#xe930;" d="M1024 448c0 282.8-229.201 512-512 512s-512-229.2-512-512c0-255.582 187.12-467.401 432.038-505.822v357.7h-129.898v148.122h129.898v112.78c0 128.22 76.301 199.18 193.301 199.18 56.102 0 114.739-10.1 114.739-10.1v-125.96h-64.521c-63.68 0-83.319-39.56-83.319-79.96v-95.94h141.961l-22.72-148.122h-119.241v-357.7c244.642 38.421 431.761 250.24 431.761 505.822z" />
<glyph unicode="&#xe931;" d="M711.194 299.878l22.741 148.122h-141.961v95.94c0 40.4 19.921 79.96 83.319 79.96h64.521v125.96c0 0-58.641 10.1-114.739 10.1-116.979 0-193.301-70.98-193.301-199.18v-112.78h-129.899v-148.122h129.899v-357.7c26.099-4.198 52.74-6.178 79.962-6.178s53.858 2.24 79.962 6.178v357.7h119.497z" />
<glyph unicode="&#xe932;" d="M984.115 415.761c0 40.346-3.354 69.786-10.603 100.314h-471.428v-182.089h276.719c-5.577-45.252-35.703-113.399-102.656-159.194l-0.939-6.097 149.060-112.841 10.325-1.007c94.844 85.598 149.521 211.537 149.521 360.913z" />
<glyph unicode="&#xe933;" d="M502.097-64c135.569 0 249.382 43.618 332.514 118.852l-158.447 119.94c-42.398-28.894-99.307-49.067-174.067-49.067-132.779 0-245.475 85.594-285.648 203.9l-5.888-0.491-154.992-117.214-2.027-5.508c82.569-160.282 252.173-270.413 448.556-270.413z" />
<glyph unicode="&#xe934;" d="M216.465 329.626c-10.6 30.528-16.735 63.241-16.735 97.041 0 33.805 6.135 66.513 16.177 97.045l-0.281 6.502-156.934 119.096-5.135-2.387c-34.031-66.513-53.558-141.204-53.558-220.257s19.527-153.741 53.558-220.254l162.907 123.213z" />
<glyph unicode="&#xe935;" d="M502.097 727.61c94.285 0 157.888-39.798 194.15-73.057l141.709 135.207c-87.031 79.052-200.29 127.573-335.859 127.573-196.383 0-365.986-110.127-448.556-270.41l162.35-123.212c40.73 118.303 153.427 203.898 286.205 203.898z" />
<glyph unicode="&#xe936;" glyph-name="grid" d="M277.333 682.667h-234.667v234.667h234.667v-234.667zM629.333 917.333h-234.667v-234.667h234.667v234.667zM981.333 917.333h-234.667v-234.667h234.667v234.667zM277.333 565.333h-234.667v-234.667h234.667v234.667zM629.333 565.333h-234.667v-234.667h234.667v234.667zM981.333 565.333h-234.667v-234.667h234.667v234.667zM277.333 213.333h-234.667v-234.667h234.667v234.667zM629.333 213.333h-234.667v-234.667h234.667v234.667zM981.333 213.333h-234.667v-234.667h234.667v234.667z" />
<glyph unicode="&#xe937;" glyph-name="headphones" d="M224 368c-16.974 0-33.253-6.741-45.255-18.743s-18.745-28.284-18.745-45.257v-144c0-16.973 6.743-33.254 18.745-45.257s28.281-18.743 45.255-18.743h48c16.974 0 33.253 6.741 45.255 18.743s18.745 28.284 18.745 45.257v144c0 16.973-6.743 33.254-18.745 45.257s-28.281 18.743-45.255 18.743h-48zM133.49 394.509c24.005 24.004 56.562 37.491 90.51 37.491h48c33.948 0 66.505-13.487 90.51-37.491s37.49-56.559 37.49-90.509v-144c0-33.95-13.486-66.505-37.49-90.509s-56.562-37.491-90.51-37.491h-48c-33.948 0-66.505 13.487-90.51 37.491s-37.49 56.563-37.49 90.509v144c0 33.946 13.486 66.505 37.49 90.509zM752 368c-16.973 0-33.254-6.741-45.257-18.743s-18.743-28.284-18.743-45.257v-144c0-16.973 6.741-33.254 18.743-45.257s28.284-18.743 45.257-18.743h48c16.973 0 33.254 6.741 45.257 18.743s18.743 28.284 18.743 45.257v144c0 16.973-6.741 33.254-18.743 45.257s-28.284 18.743-45.257 18.743h-48zM661.491 394.509c24.004 24.004 56.559 37.491 90.509 37.491h48c33.95 0 66.505-13.487 90.509-37.491s37.491-56.559 37.491-90.509v-144c0-33.95-13.487-66.505-37.491-90.509s-56.559-37.491-90.509-37.491h-48c-33.95 0-66.505 13.487-90.509 37.491s-37.491 56.559-37.491 90.509v144c0 33.95 13.487 66.505 37.491 90.509zM512 800c-93.356 0-182.889-37.085-248.902-103.098s-103.098-155.545-103.098-248.902v-144c0-17.673-14.327-32-32-32s-32 14.327-32 32v144c0 110.33 43.828 216.141 121.844 294.156s183.826 121.844 294.156 121.844c110.332 0 216.141-43.828 294.157-121.844s121.843-183.826 121.843-294.156v-144c0-17.673-14.327-32-32-32s-32 14.327-32 32v144c0 93.356-37.086 182.889-103.1 248.902-66.010 66.013-155.546 103.098-248.9 103.098z" />
<glyph unicode="&#xe938;" glyph-name="headset" d="M501.333 810.667c-82.040 0-160.721-32.591-218.732-90.602s-90.602-136.691-90.602-218.732v-128c0-17.673-14.327-32-32-32s-32 14.327-32 32v128c0 99.014 39.333 193.973 109.347 263.986s164.972 109.347 263.986 109.347c99.012 0 193.971-39.333 263.987-109.347 70.012-70.013 109.346-164.972 109.346-263.986v-128c0-17.673-14.327-32-32-32s-32 14.327-32 32v128c0 82.040-32.589 160.721-90.603 218.732-58.010 58.011-136.691 90.602-218.731 90.602zM757.333 192c17.673 0 32-14.327 32-32 0-53.999-42.935-94.268-92.663-119.134-51.644-25.822-120.747-40.866-195.337-40.866-17.673 0-32 14.327-32 32s14.327 32 32 32c66.807 0 125.705 13.606 166.711 34.108 42.923 21.461 57.289 45.193 57.289 61.892 0 17.673 14.327 32 32 32zM245.333 426.667c-14.145 0-27.71-5.619-37.712-15.62s-15.621-23.569-15.621-37.713v-128c0-14.144 5.619-27.712 15.621-37.713s23.567-15.62 37.712-15.62h42.667c14.145 0 27.71 5.619 37.712 15.62s15.621 23.569 15.621 37.713v128c0 14.144-5.619 27.712-15.621 37.713s-23.567 15.62-37.712 15.62h-42.667zM162.366 456.299c22.004 22.007 51.848 34.368 82.967 34.368h42.667c31.119 0 60.963-12.361 82.967-34.368 22.004-22.003 34.366-51.849 34.366-82.965v-128c0-31.117-12.362-60.962-34.366-82.965-22.004-22.007-51.848-34.368-82.967-34.368h-42.667c-31.119 0-60.963 12.361-82.967 34.368-22.004 22.003-34.366 51.849-34.366 82.965v128c0 31.117 12.362 60.962 34.366 82.965zM714.667 426.667c-14.144 0-27.712-5.619-37.713-15.62s-15.62-23.569-15.62-37.713v-128c0-14.144 5.619-27.712 15.62-37.713s23.569-15.62 37.713-15.62h42.667c14.144 0 27.712 5.619 37.713 15.62s15.62 23.569 15.62 37.713v128c0 14.144-5.619 27.712-15.62 37.713s-23.569 15.62-37.713 15.62h-42.667zM631.701 456.299c22.003 22.007 51.849 34.368 82.965 34.368h42.667c31.117 0 60.962-12.361 82.965-34.368 22.007-22.003 34.368-51.849 34.368-82.965v-128c0-31.117-12.361-60.962-34.368-82.965-22.003-22.007-51.849-34.368-82.965-34.368h-42.667c-31.117 0-60.962 12.361-82.965 34.368-22.007 22.003-34.368 51.849-34.368 82.965v128c0 31.117 12.361 60.962 34.368 82.965z" />
<glyph unicode="&#xe939;" glyph-name="heart" d="M752.38 874.667c-90.466 0-169.673-38.903-219.046-104.661-49.374 65.758-128.581 104.661-219.048 104.661-72.013-0.081-141.053-28.724-191.974-79.645s-79.564-119.961-79.645-191.974c0-306.668 454.699-554.89 474.061-565.143 5.107-2.748 10.812-4.181 16.606-4.181s11.499 1.434 16.606 4.181c19.362 10.253 474.061 258.475 474.061 565.143-0.081 72.013-28.723 141.053-79.646 191.974-50.918 50.921-119.962 79.564-191.974 79.645zM533.333 108.877c-79.996 46.613-420.571 258.957-420.571 494.171 0.070 53.426 21.324 104.644 59.102 142.422s88.996 59.032 142.422 59.101c85.21 0 156.75-45.387 186.63-118.286 2.641-6.428 7.13-11.926 12.902-15.795s12.565-5.935 19.516-5.935c6.95 0 13.743 2.066 19.516 5.935s10.261 9.367 12.902 15.795c29.879 73.030 101.419 118.286 186.628 118.286 53.427-0.070 104.644-21.324 142.421-59.101 37.781-37.778 59.034-88.996 59.102-142.422 0-234.864-340.659-447.515-420.57-494.171z" />
<glyph unicode="&#xe93a;" glyph-name="heart-fill" d="M752.38 874.667c-90.466 0-169.673-38.903-219.046-104.661-49.374 65.758-128.581 104.661-219.048 104.661-72.013-0.081-141.053-28.724-191.974-79.645s-79.564-119.961-79.645-191.974c0-306.668 454.699-554.89 474.061-565.143 5.107-2.748 10.812-4.181 16.606-4.181s11.499 1.434 16.606 4.181c19.362 10.253 474.061 258.475 474.061 565.143-0.081 72.013-28.723 141.053-79.646 191.974-50.918 50.921-119.962 79.564-191.974 79.645z" />
<glyph unicode="&#xe93b;" glyph-name="home" d="M488.794 865.054c12.817 12.817 33.596 12.817 46.417 0l393.843-393.847c9.387-9.387 12.194-23.501 7.117-35.767-5.082-12.262-17.050-20.258-30.323-20.258h-87.522c-18.125 0-32.819 14.694-32.819 32.819s14.694 32.819 32.819 32.819h8.286l-314.611 314.612-314.609-314.612h8.286c18.126 0 32.82-14.694 32.82-32.819s-14.694-32.819-32.82-32.819h-87.522c-13.274 0-25.242 7.996-30.322 20.258-5.080 12.267-2.272 26.381 7.115 35.767l393.846 393.847zM205.696 480.819c18.126 0 32.82-14.694 32.82-32.819v-306.325c0-14.507 5.763-28.42 16.021-38.677 10.259-10.261 24.172-16.021 38.679-16.021h437.608c14.507 0 28.42 5.76 38.677 16.021 10.261 10.257 16.021 24.171 16.021 38.677v306.325c0 18.125 14.694 32.819 32.823 32.819 18.125 0 32.819-14.694 32.819-32.819v-306.325c0-31.915-12.681-62.524-35.247-85.094-22.571-22.566-53.18-35.247-85.094-35.247h-437.608c-31.917 0-62.526 12.681-85.094 35.247-22.569 22.571-35.247 53.18-35.247 85.094v306.325c0 18.125 14.694 32.819 32.82 32.819zM468.258 371.418c-14.507 0-28.42-5.76-38.677-16.021-10.26-10.257-16.023-24.171-16.023-38.677v-262.566c0-18.125-14.694-32.819-32.82-32.819s-32.82 14.694-32.82 32.819v262.566c0 31.915 12.679 62.524 35.247 85.094 22.568 22.566 53.179 35.247 85.094 35.247h87.522c31.915 0 62.524-12.681 85.094-35.247 22.566-22.571 35.247-53.18 35.247-85.094v-262.566c0-18.125-14.694-32.819-32.819-32.819-18.129 0-32.823 14.694-32.823 32.819v262.566c0 14.507-5.76 28.42-16.021 38.677-10.257 10.261-24.171 16.021-38.677 16.021h-87.522z" />
<glyph unicode="&#xe93c;" glyph-name="like" d="M926.754 403.017c18.266 24.141 28.378 53.713 28.378 84.48 0 48.818-27.29 95.026-71.215 120.794-11.311 6.633-24.183 10.124-37.295 10.112h-260.719l6.524 133.623c1.519 32.291-9.894 62.951-32.077 86.327-10.884 11.522-24.017 20.689-38.583 26.935s-30.263 9.438-46.11 9.379c-56.539 0-106.552-38.054-121.556-92.524l-93.394-338.135h-140.581c-19.244 0-34.792-15.548-34.792-34.79v-395.759c0-19.243 15.548-34.79 34.792-34.79h653.763c10.001 0 19.785 1.958 28.809 5.871 51.755 22.071 85.133 72.627 85.133 128.73 0 13.7-1.958 27.183-5.871 40.23 18.266 24.137 28.378 53.709 28.378 84.476 0 13.7-1.958 27.183-5.871 40.23 18.266 24.137 28.378 53.709 28.378 84.48-0.218 13.696-2.176 27.29-6.089 40.333zM163.615 56.947v308.779h88.067v-308.779h-88.067zM855.539 440.747l-23.812-20.659 15.113-27.614c4.979-9.097 7.561-19.311 7.501-29.683 0-17.941-7.825-35.008-21.308-46.75l-23.812-20.659 15.113-27.614c4.979-9.101 7.561-19.315 7.505-29.683 0-17.941-7.829-35.008-21.312-46.754l-23.812-20.655 15.117-27.618c4.975-9.097 7.561-19.311 7.501-29.679 0-24.354-14.353-46.319-36.531-56.32h-451.535v312.145l108.183 391.954c2.786 10.046 8.777 18.909 17.054 25.246 8.282 6.337 18.402 9.803 28.826 9.872 8.265 0 16.418-2.392 22.942-7.285 10.765-8.045 16.525-20.223 15.872-33.161l-10.436-215.709h341.828c19.354-11.852 31.313-31.858 31.313-52.624 0-17.937-7.825-34.901-21.308-46.75z" />
<glyph unicode="&#xe93d;" glyph-name="list" d="M120.889 144.593c20.746 0 40.642-8.243 55.312-22.912s22.911-34.564 22.911-55.309c0-20.749-8.241-40.644-22.911-55.313s-34.566-22.912-55.312-22.912c-20.746 0-40.642 8.243-55.311 22.912s-22.911 34.564-22.911 55.313c0 20.745 8.241 40.64 22.911 55.309s34.566 22.912 55.311 22.912zM929.186 118.519c13.828 0 27.093-5.495 36.873-15.275s15.275-23.044 15.275-36.873c0-13.833-5.495-27.098-15.275-36.877s-23.044-15.275-36.873-15.275h-573.631c-13.83 0-27.095 5.495-36.874 15.275s-15.274 23.044-15.274 36.877c0 13.828 5.494 27.093 15.274 36.873s23.044 15.275 36.874 15.275h573.631zM120.889 509.628c20.746 0 40.642-8.239 55.312-22.908s22.911-34.569 22.911-55.313c0-20.745-8.241-40.64-22.911-55.313-14.67-14.669-34.566-22.908-55.312-22.908s-40.642 8.239-55.311 22.908c-14.67 14.673-22.911 34.569-22.911 55.313s8.241 40.644 22.911 55.313c14.67 14.669 34.566 22.908 55.311 22.908zM929.186 483.554c13.291-0.013 26.074-5.103 35.738-14.225 9.668-9.126 15.484-21.598 16.26-34.867 0.781-13.265-3.537-26.334-12.066-36.527-8.533-10.189-20.634-16.742-33.83-18.313l-6.101-0.363h-573.631c-13.292 0.013-26.076 5.103-35.741 14.229-9.665 9.122-15.481 21.594-16.26 34.863s3.538 26.334 12.069 36.527c8.531 10.193 20.632 16.742 33.83 18.313l6.101 0.363h573.631zM120.889 874.667c20.746 0 40.642-8.241 55.312-22.911s22.911-34.566 22.911-55.311c0-20.746-8.241-40.642-22.911-55.312s-34.566-22.911-55.312-22.911c-20.746 0-40.642 8.241-55.311 22.911s-22.911 34.566-22.911 55.312c0 20.746 8.241 40.642 22.911 55.311s34.566 22.911 55.311 22.911zM929.186 848.593c13.291-0.015 26.074-5.104 35.738-14.228 9.668-9.124 15.484-21.595 16.26-34.863 0.781-13.269-3.537-26.334-12.066-36.527-8.533-10.193-20.634-16.743-33.83-18.313l-6.101-0.365h-573.631c-13.292 0.015-26.076 5.104-35.741 14.229s-15.481 21.594-16.26 34.863c-0.779 13.268 3.538 26.334 12.069 36.527s20.632 16.743 33.83 18.313l6.101 0.365h573.631z" />
<glyph unicode="&#xe93e;" glyph-name="mail" d="M864 874.667c42.436 0 83.132-16.857 113.135-46.863 30.007-30.006 46.865-70.703 46.865-113.137v-512c0-42.436-16.858-83.132-46.865-113.135-30.003-30.007-70.699-46.865-113.135-46.865h-704c-42.435 0-83.131 16.858-113.137 46.865-30.006 30.003-46.863 70.699-46.863 113.135v512c0 42.435 16.857 83.131 46.863 113.137s70.703 46.863 113.137 46.863h704zM960 621.163l-431.744-254.080c-4.083-2.398-8.644-3.857-13.359-4.279-4.715-0.418-9.463 0.213-13.905 1.847l-5.248 2.432-431.744 253.952v-418.368c0-25.459 10.114-49.877 28.118-67.883 18.004-18.001 42.421-28.117 67.882-28.117h704c25.459 0 49.877 10.116 67.883 28.117 18.001 18.005 28.117 42.423 28.117 67.883v418.496zM864 810.667h-704c-25.461 0-49.879-10.114-67.882-28.118s-28.118-42.421-28.118-67.882v-19.328l448-263.552 448 263.68v19.2c0 25.461-10.116 49.879-28.117 67.882-18.005 18.004-42.423 28.118-67.883 28.118z" />
<glyph unicode="&#xe93f;" glyph-name="mastercard-card" d="M162.729 723.845c-14.474 0-28.355-5.75-38.589-15.984s-15.984-24.116-15.984-38.589v-436.589c0-14.473 5.75-28.356 15.984-38.592 10.235-10.231 24.116-15.983 38.589-15.983h698.541c14.477 0 28.356 5.751 38.592 15.983 10.236 10.236 15.983 24.119 15.983 38.592v316.527h-665.798c-18.084 0-32.745 14.66-32.745 32.744s14.66 32.745 32.745 32.745h665.798v54.574c0 14.474-5.747 28.355-15.983 38.589s-24.115 15.984-38.592 15.984h-698.541zM77.832 754.168c22.516 22.516 53.054 35.165 84.896 35.165h698.541c31.846 0 62.383-12.649 84.898-35.165s35.166-53.054 35.166-84.896v-436.589c0-31.842-12.651-62.383-35.166-84.898s-53.052-35.166-84.898-35.166h-698.541c-31.842 0-62.38 12.651-84.896 35.166s-35.165 53.056-35.165 84.898v436.589c0 31.842 12.649 62.38 35.165 84.896zM624.713 431.505c17.314 7.74 36.493 10.304 55.232 7.386 9.971-1.553 19.584-4.625 28.531-9.067 8.947 4.442 18.564 7.514 28.531 9.067 18.739 2.918 37.922 0.354 55.232-7.386 17.31-7.744 32.013-20.331 42.325-36.241 10.317-15.915 15.804-34.47 15.804-53.436 0-18.961-5.487-37.521-15.804-53.431-10.313-15.915-25.015-28.501-42.325-36.241-17.31-7.744-36.493-10.308-55.232-7.386-9.967 1.553-19.584 4.625-28.531 9.062-8.947-4.437-18.56-7.509-28.531-9.062-18.739-2.923-37.918-0.358-55.232 7.386-17.31 7.74-32.009 20.326-42.325 36.241-10.317 15.91-15.804 34.47-15.804 53.431 0 18.965 5.487 37.521 15.804 53.436 10.317 15.91 25.015 28.497 42.325 36.241zM669.858 374.182c-6.246 0.973-12.638 0.119-18.411-2.462-5.769-2.581-10.671-6.775-14.11-12.079-3.435-5.303-5.265-11.49-5.265-17.813 0-6.319 1.83-12.506 5.265-17.809 3.439-5.303 8.341-9.502 14.11-12.083 5.773-2.577 12.164-3.435 18.411-2.462 6.246 0.977 12.075 3.738 16.789 7.949 12.429 11.119 31.228 11.119 43.661 0 4.71-4.211 10.539-6.972 16.785-7.949 6.246-0.973 12.642-0.115 18.411 2.462 5.773 2.581 10.671 6.78 14.11 12.083s5.269 11.49 5.269 17.809c0 6.323-1.83 12.51-5.269 17.813s-8.337 9.498-14.11 12.079c-5.769 2.581-12.164 3.435-18.411 2.462s-12.075-3.733-16.785-7.949c-12.433-11.119-31.232-11.119-43.661 0-4.715 4.215-10.543 6.976-16.789 7.949z" />
<glyph unicode="&#xe940;" glyph-name="menu" d="M0 768c0 16.974 6.743 33.253 18.745 45.255s28.281 18.745 45.255 18.745h896c16.973 0 33.254-6.743 45.257-18.745s18.743-28.281 18.743-45.255c0-16.974-6.741-33.253-18.743-45.255s-28.284-18.745-45.257-18.745h-896c-16.974 0-33.252 6.743-45.255 18.745s-18.745 28.281-18.745 45.255zM0 448c0 16.973 6.743 33.254 18.745 45.257s28.281 18.743 45.255 18.743h896c16.973 0 33.254-6.741 45.257-18.743s18.743-28.284 18.743-45.257c0-16.973-6.741-33.254-18.743-45.257s-28.284-18.743-45.257-18.743h-896c-16.974 0-33.252 6.741-45.255 18.743s-18.745 28.284-18.745 45.257zM0 128c0 16.973 6.743 33.254 18.745 45.257s28.281 18.743 45.255 18.743h896c16.973 0 33.254-6.741 45.257-18.743s18.743-28.284 18.743-45.257c0-16.973-6.741-33.254-18.743-45.257s-28.284-18.743-45.257-18.743h-896c-16.974 0-33.252 6.741-45.255 18.743s-18.745 28.284-18.745 45.257z" />
<glyph unicode="&#xe941;" glyph-name="message" d="M925.534 125.111l-40.55 114.108c-7.748 21.803-3.123 46.084 12.087 63.518 41.933 48.038 62.929 102.101 62.929 156.698 0 78.413-44.006 154.279-124.809 212.627-80.708 58.28-194.701 95.938-322.453 95.938-127.652 0-242.023-37.972-323.158-96.652-81.287-58.79-125.58-135.057-125.58-213.39 0-77.602 43.936-153.51 124.868-212.113 80.762-58.483 194.754-96.452 322.394-96.452 85.056 0 167.484 16 236.992 46.839 18.59 8.247 39.991 7.168 57.655-2.906l119.625-68.215zM970.146 33.754h-0.346c-4.407-0.004-12.233-0.009-20.177 3.964-0.154 0.077-0.307 0.158-0.461 0.243l-174.955 99.772c-78.801-34.961-170.266-52.339-262.946-52.339-139.779 0-267.21 41.472-359.93 108.612-92.692 67.123-151.332 160.482-151.332 263.953 0 104.212 59.011 197.942 152.074 265.248 93.088 67.324 220.887 108.794 360.664 108.794 139.759 0 267.191-41.091 359.919-108.052 92.715-66.95 151.343-160.317 151.343-264.514 0-71.881-27.861-140.523-78.711-198.784l61.901-174.182c5.645-15.151 2.112-33.199-12.198-43.486-6.98-5.214-16.29-9.229-24.845-9.229z" />
<glyph unicode="&#xe942;" glyph-name="message-2" d="M887.454 917.333c12.322 0.010 24.521-2.407 35.908-7.113 11.392-4.709 21.743-11.616 30.464-20.328s15.637-19.057 20.356-30.444c4.723-11.387 7.151-23.593 7.151-35.919v-562.764c0-24.892-9.89-48.768-27.494-66.372-17.6-17.604-41.476-27.494-66.372-27.494h-233.57l-115.87-173.683c-5.803-8.7-15.569-13.922-26.027-13.922s-20.224 5.222-26.027 13.922l-115.865 173.679-233.567-0.055c-51.865 0-93.874 41.958-93.874 93.803v562.825c0 24.895 9.89 48.77 27.493 66.374s41.478 27.493 66.374 27.493h750.921zM899.456 852.387c-3.789 1.568-7.855 2.372-11.959 2.368h-750.963c-8.298 0-16.257-3.296-22.124-9.164s-9.164-13.826-9.164-22.124v-562.825c0-17.242 13.939-31.223 31.281-31.228l250.311 0.064c10.461 0.004 20.231-5.222 26.036-13.926l99.127-148.591 99.127 148.591c5.803 8.7 15.569 13.926 26.027 13.926h250.313c8.299 0 16.256 3.298 22.123 9.165 5.871 5.867 9.165 13.824 9.165 22.123v562.764c0 4.103-0.806 8.166-2.377 11.957-1.574 3.791-3.874 7.234-6.78 10.134-2.901 2.9-6.349 5.2-10.142 6.767z" />
<glyph unicode="&#xe943;" glyph-name="minus" d="M42.667 455.113c0 43.2 35.021 78.221 78.222 78.221h782.224c43.2 0 78.221-35.021 78.221-78.221 0-43.204-35.021-78.225-78.221-78.225h-782.224c-43.201 0-78.222 35.021-78.222 78.225z" />
<glyph unicode="&#xe944;" glyph-name="mission" d="M672.823 118.729c10.62 0 19.665 3.716 27.136 11.149 7.437 7.433 11.153 16.478 11.153 27.136 0 10.62-3.716 19.665-11.153 27.136-7.433 7.433-16.478 11.149-27.136 11.149-10.62 0-19.665-3.716-27.136-11.149-7.433-7.471-11.149-16.516-11.149-27.136 0-10.658 3.716-19.703 11.149-27.136 7.437-7.433 16.482-11.149 27.136-11.149zM796.446 118.729c10.62 0 19.665 3.716 27.136 11.149 7.433 7.433 11.149 16.478 11.149 27.136 0 10.62-3.716 19.665-11.149 27.136-7.437 7.433-16.482 11.149-27.136 11.149-10.62 0-19.665-3.716-27.136-11.149-7.437-7.471-11.153-16.516-11.153-27.136 0-10.658 3.716-19.703 11.153-27.136 7.433-7.433 16.478-11.149 27.136-11.149zM920.064 118.729c10.62 0 19.665 3.716 27.136 11.149 7.433 7.433 11.149 16.478 11.149 27.136 0 10.62-3.716 19.665-11.149 27.136-7.433 7.433-16.478 11.149-27.136 11.149-10.62 0-19.665-3.716-27.136-11.149-7.433-7.471-11.149-16.516-11.149-27.136 0-10.658 3.716-19.703 11.149-27.136s16.478-11.149 27.136-11.149zM91.875 49.779c-25.41 0-47.085 8.947-65.024 26.85-17.901 17.903-26.852 39.578-26.852 65.024v726.471c0 25.41 8.951 47.085 26.852 65.024 17.901 17.901 39.576 26.852 65.024 26.852h726.471c25.412 0 47.087-8.951 65.024-26.852 17.903-17.901 26.85-39.576 26.85-65.024v-338.49c-9.971 3.413-19.529 6.202-28.672 8.364-9.101 2.124-18.505 4.248-28.215 6.372v323.697c0 8.761-3.639 16.801-10.923 24.121-7.322 7.281-15.343 10.923-24.064 10.923h-726.471c-8.723 0-16.744-3.641-24.064-10.923-7.281-7.32-10.923-15.341-10.923-24.064v-726.471c0-8.721 3.641-16.742 10.923-24.064 7.32-7.283 15.341-10.923 24.064-10.923h322.333c1.365-10.62 3.129-20.497 5.291-29.641 2.162-9.101 4.949-18.185 8.363-27.247h-335.986zM56.889 163.554v-0zM199.111 290.419c0-8.081 2.711-14.831 8.135-20.254 5.461-5.423 12.231-8.137 20.309-8.137h196.836c2.086 9.711 4.929 19.115 8.535 28.22l11.375 28.672h-216.745c-8.078 0-14.848-2.731-20.309-8.192-5.423-5.423-8.135-12.177-8.135-20.254zM199.111 504.887c0-8.077 2.711-14.848 8.135-20.309 5.461-5.423 12.231-8.132 20.309-8.132h345.885c18.697 13.12 37.090 24.252 55.181 33.391 18.167 9.105 37.645 16.235 58.428 21.393-4.173 1.173-8.913 1.818-14.225 1.933-5.308 0.115-10.048 0.171-14.221 0.171h-431.047c-8.078 0-14.848-2.714-20.309-8.137-5.423-5.461-8.135-12.228-8.135-20.309zM199.111 719.36c0-8.116 2.711-14.886 8.135-20.309 5.461-5.461 12.231-8.192 20.309-8.192h455.111c8.077 0 14.848 2.731 20.309 8.192 5.423 5.423 8.137 12.174 8.137 20.253 0 8.116-2.714 14.886-8.137 20.309-5.461 5.423-12.233 8.135-20.309 8.135h-455.111c-8.078 0-14.848-2.711-20.309-8.135-5.423-5.423-8.135-12.193-8.135-20.309zM796.446-70.541c-63.377 0-117.154 22.071-161.34 66.219-44.181 44.143-66.257 97.924-66.219 161.335 0 63.334 22.076 117.094 66.219 161.28 44.147 44.186 97.924 66.274 161.34 66.274 63.373 0 117.15-22.089 161.335-66.274s66.257-97.946 66.219-161.28c0-63.411-22.071-117.193-66.219-161.335-44.22-44.147-98.001-66.219-161.335-66.219z" />
<glyph unicode="&#xe945;" glyph-name="paper-plane" d="M82.134 888.798c-6.599 2.936-13.958 3.703-21.021 2.191s-13.463-5.225-18.281-10.605c-4.819-5.38-7.806-12.149-8.534-19.335s0.843-14.416 4.486-20.653l228.898-392.397-228.898-392.397c-3.642-6.238-5.213-13.466-4.486-20.651 0.727-7.189 3.715-13.956 8.534-19.337s11.219-9.092 18.281-10.603c7.062-1.515 14.422-0.747 21.021 2.189l921.6 409.6c6.037 2.679 11.166 7.053 14.767 12.591s5.517 12.002 5.517 18.607c0 6.605-1.916 13.069-5.517 18.607s-8.73 9.911-14.767 12.591l-921.6 409.6zM330.829 475.307l-179.814 308.156 754.892-335.462-754.892-335.462 179.814 308.156h283.579c7.241 0 14.187 2.876 19.311 8 5.12 5.12 7.996 12.066 7.996 19.307s-2.876 14.187-7.996 19.311c-5.124 5.12-12.070 7.996-19.311 7.996h-283.579z" />
<glyph unicode="&#xe946;" glyph-name="pencil" d="M645.572 781.058c18.522 7.673 38.379 11.622 58.428 11.622s39.906-3.949 58.428-11.622c18.526-7.673 35.354-18.919 49.532-33.097s25.425-31.009 33.097-49.533c7.676-18.524 11.622-38.378 11.622-58.428s-3.947-39.904-11.622-58.428c-7.671-18.524-18.918-35.355-33.097-49.532l-447.999-448c-6.001-6.003-14.141-9.374-22.627-9.374h-170.667c-17.673 0-32 14.327-32 32v170.667c0 8.486 3.372 16.627 9.373 22.626l448.001 448.001c14.178 14.178 31.006 25.424 49.532 33.097zM704 728.68c-11.644 0-23.177-2.294-33.937-6.75-10.756-4.457-20.535-10.989-28.77-19.223l-438.626-438.629v-125.41h125.412l438.629 438.627c8.235 8.235 14.767 18.011 19.221 28.77 4.459 10.759 6.75 22.291 6.75 33.936s-2.291 23.177-6.75 33.936c-4.454 10.759-10.987 20.535-19.221 28.77s-18.014 14.767-28.77 19.223c-10.761 4.457-22.293 6.75-33.937 6.75zM553.374 705.294c12.497 12.497 32.755 12.497 45.252 0l170.667-170.667c12.497-12.498 12.497-32.756 0-45.254s-32.755-12.497-45.252 0l-170.667 170.665c-12.497 12.497-12.497 32.758 0 45.255z" />
</font>
</defs>
</svg>
